# Blender 5.2.1 LTS
# www.blender.org
mtllib base_gun.mtl
o Solar_PAnel
v -0.052954 1.305617 -0.245632
v -0.052954 1.812538 -1.083631
v -0.052954 0.930313 -0.472660
v -0.052954 1.437235 -1.310659
v 0.052954 1.305617 -0.245632
v 0.052954 1.812538 -1.083631
v 0.052954 0.930313 -0.472660
v 0.052954 1.437235 -1.310659
v 0.052954 1.305617 0.245632
v 0.052954 1.812538 1.083631
v 0.052954 0.930313 0.472660
v 0.052954 1.437235 1.310659
v -0.052954 1.305617 0.245632
v -0.052954 1.812538 1.083631
v -0.052954 0.930313 0.472660
v -0.052954 1.437235 1.310659
vn -1.0000 -0.0000 -0.0000
vn -0.0000 -0.8556 -0.5176
vn 1.0000 -0.0000 -0.0000
vn -0.0000 0.8556 0.5176
vn -0.0000 -0.5176 0.8556
vn -0.0000 0.5176 -0.8556
vn -0.0000 -0.8556 0.5176
vn -0.0000 0.8556 -0.5176
vn -0.0000 -0.5176 -0.8556
vn -0.0000 0.5176 0.8556
vt 0.593706 0.474895
vt 0.913392 0.668279
vt 1.000000 0.525105
vt 0.680314 0.331721
vt 0.479799 0.680314
vt 0.479799 1.000000
vt 0.520201 1.000000
vt 0.520201 0.680314
vt 0.520201 0.593706
vt 0.520201 0.913392
vt 0.479799 0.913392
vt 0.479799 0.593706
vt 0.479799 0.331721
vt 0.520201 0.331721
vt 0.520201 0.474895
vt 0.479799 0.474895
vt 0.520201 0.525105
vt 0.479799 0.525105
vt 0.479799 0.668279
vt 0.520201 0.668279
vt 0.406294 0.474895
vt 0.086608 0.668279
vt 0.000000 0.525105
vt 0.319686 0.331721
vt 0.520201 0.319686
vt 0.520201 0.000000
vt 0.479799 0.000000
vt 0.479799 0.319686
vt 0.406294 0.474895
vt 0.479799 0.406294
vt 0.479799 0.086608
vt 0.520201 0.086608
vt 0.520201 0.406294
vt 0.479799 0.331721
vt 0.479799 0.525105
vt 0.520201 0.525105
vt 0.520201 0.668279
vt 0.479799 0.668279
s 0
usemtl Solar_panel
f 1/1/1 2/2/1 4/3/1 3/4/1
f 3/5/2 4/6/2 8/7/2 7/8/2
f 7/4/3 8/3/3 6/2/3 5/1/3
f 5/9/4 6/10/4 2/11/4 1/12/4
f 3/13/5 7/14/5 5/15/5 1/16/5
f 8/17/6 4/18/6 2/19/6 6/20/6
f 9/21/3 10/22/3 12/23/3 11/24/3
f 11/25/7 12/26/7 16/27/7 15/28/7
f 15/24/1 16/23/1 14/22/1 13/29/1
f 13/30/8 14/31/8 10/32/8 9/33/8
f 11/14/9 15/34/9 13/16/9 9/15/9
f 16/35/10 12/36/10 10/37/10 14/38/10
o Cube.001
v 0.000000 -0.508231 0.000000
v -0.352347 0.508231 0.352347
v -0.352347 0.508231 -0.352347
v 0.352347 0.508231 0.352347
v 0.352347 0.508231 -0.352347
v -0.508231 0.508231 0.508231
v -0.508231 0.508231 -0.508231
v 0.508231 0.508231 -0.508231
v 0.508231 0.508231 0.508231
v -0.352347 0.497182 0.352347
v -0.107478 0.742052 0.107478
v -0.346208 0.551671 0.346208
v -0.328098 0.603427 0.328098
v -0.298925 0.649856 0.298925
v -0.260152 0.688629 0.260152
v -0.213723 0.717802 0.213723
v -0.161967 0.735912 0.161967
v -0.107478 0.742052 -0.107478
v -0.352347 0.497182 -0.352347
v -0.161967 0.735912 -0.161967
v -0.213723 0.717802 -0.213723
v -0.260152 0.688629 -0.260152
v -0.298925 0.649856 -0.298925
v -0.328098 0.603427 -0.328098
v -0.346208 0.551671 -0.346208
v 0.107478 0.742052 -0.107478
v 0.352347 0.497182 -0.352347
v 0.161967 0.735912 -0.161967
v 0.213723 0.717802 -0.213723
v 0.260152 0.688629 -0.260152
v 0.298925 0.649856 -0.298925
v 0.328098 0.603427 -0.328098
v 0.346208 0.551671 -0.346208
v 0.107478 0.742052 0.107478
v 0.352347 0.497182 0.352347
v 0.161967 0.735912 0.161967
v 0.213723 0.717802 0.213723
v 0.260152 0.688629 0.260152
v 0.298925 0.649856 0.298925
v 0.328098 0.603427 0.328098
v 0.346208 0.551671 0.346208
vn -0.8944 -0.4472 -0.0000
vn -0.0000 -0.4472 -0.8944
vn 0.8944 -0.4472 -0.0000
vn -0.0000 -0.4472 0.8944
vn -0.0000 1.0000 -0.0000
vn -0.1120 0.9937 -0.0000
vn -0.3303 0.9439 -0.0000
vn -0.5320 0.8467 -0.0000
vn -0.7071 0.7071 -0.0000
vn -0.8467 0.5320 -0.0000
vn -0.9439 0.3303 -0.0000
vn -0.9937 0.1120 -0.0000
vn -0.0000 0.9937 -0.1120
vn -0.0000 0.9439 -0.3303
vn -0.0000 0.8467 -0.5320
vn -0.0000 0.7071 -0.7071
vn -0.0000 0.5320 -0.8467
vn -0.0000 0.3303 -0.9439
vn -0.0000 0.1120 -0.9937
vn 0.1120 0.9937 -0.0000
vn 0.3303 0.9439 -0.0000
vn 0.5320 0.8467 -0.0000
vn 0.7071 0.7071 -0.0000
vn 0.8467 0.5320 -0.0000
vn 0.9439 0.3303 -0.0000
vn 0.9937 0.1120 -0.0000
vn -0.0000 0.9937 0.1120
vn -0.0000 0.9439 0.3303
vn -0.0000 0.8467 0.5320
vn -0.0000 0.7071 0.7071
vn -0.0000 0.5320 0.8467
vn -0.0000 0.3303 0.9439
vn -0.0000 0.1120 0.9937
vn 1.0000 -0.0000 -0.0000
vn -0.0000 -0.0000 -1.0000
vn -0.0000 -0.0000 1.0000
vn -1.0000 -0.0000 -0.0000
vt 0.348093 0.140878
vt 0.023397 0.790270
vt 0.672789 0.790270
vt 0.896681 0.270900
vt 0.896681 0.097580
vt 0.935021 0.059240
vt 0.935021 0.309240
vt 0.723361 0.097580
vt 0.685021 0.059240
vt 0.723361 0.270900
vt 0.685021 0.309240
vt 0.845756 0.818351
vt 0.845756 0.765482
vt 0.859158 0.752081
vt 0.859158 0.831753
vt 0.871887 0.739351
vt 0.871888 0.844482
vt 0.883307 0.727932
vt 0.883307 0.855901
vt 0.899413 0.711826
vt 0.899413 0.872007
vt 0.903000 0.708239
vt 0.903000 0.875595
vt 0.905227 0.706011
vt 0.905227 0.877822
vt 0.905982 0.705256
vt 0.905982 0.878577
vt 0.792888 0.765482
vt 0.779486 0.752081
vt 0.766757 0.739351
vt 0.755337 0.727932
vt 0.739231 0.711826
vt 0.735644 0.708239
vt 0.733417 0.706011
vt 0.732662 0.705256
vt 0.792888 0.818351
vt 0.779486 0.831753
vt 0.766757 0.844482
vt 0.755337 0.855901
vt 0.739231 0.872007
vt 0.735644 0.875595
vt 0.733417 0.877822
vt 0.732662 0.878577
vt 0.905982 0.878577
vt 0.732662 0.878577
s 0
usemtl Gun
f 17/39/11 22/40/11 23/41/11
f 17/39/12 23/40/12 24/41/12
f 17/39/13 24/41/13 25/40/13
f 17/39/14 25/41/14 22/40/14
f 18/42/15 19/43/15 23/44/15 22/45/15
f 19/43/15 21/46/15 24/47/15 23/44/15
f 21/46/15 20/48/15 25/49/15 24/47/15
f 20/48/15 18/42/15 22/45/15 25/49/15
f 27/50/16 34/51/16 36/52/16 33/53/16
f 33/53/17 36/52/17 37/54/17 32/55/17
f 32/55/18 37/54/18 38/56/18 31/57/18
f 31/57/19 38/56/19 39/58/19 30/59/19
f 30/59/20 39/58/20 40/60/20 29/61/20
f 29/61/21 40/60/21 41/62/21 28/63/21
f 28/63/22 41/62/22 35/64/22 26/65/22
f 34/51/23 42/66/23 44/67/23 36/52/23
f 36/52/24 44/67/24 45/68/24 37/54/24
f 37/54/25 45/68/25 46/69/25 38/56/25
f 38/56/26 46/69/26 47/70/26 39/58/26
f 39/58/27 47/70/27 48/71/27 40/60/27
f 40/60/28 48/71/28 49/72/28 41/62/28
f 41/62/29 49/72/29 43/73/29 35/64/29
f 42/66/30 50/74/30 52/75/30 44/67/30
f 44/67/31 52/75/31 53/76/31 45/68/31
f 45/68/32 53/76/32 54/77/32 46/69/32
f 46/69/33 54/77/33 55/78/33 47/70/33
f 47/70/34 55/78/34 56/79/34 48/71/34
f 48/71/35 56/79/35 57/80/35 49/72/35
f 49/72/36 57/80/36 51/81/36 43/73/36
f 50/74/37 27/50/37 33/53/37 52/75/37
f 52/75/38 33/53/38 32/55/38 53/76/38
f 53/76/39 32/55/39 31/57/39 54/77/39
f 54/77/40 31/57/40 30/59/40 55/78/40
f 55/78/41 30/59/41 29/61/41 56/79/41
f 56/79/42 29/61/42 28/63/42 57/80/42
f 57/80/43 28/63/43 26/65/43 51/81/43
f 19/64/44 18/82/44 26/65/44 35/64/44
f 42/66/15 34/51/15 27/50/15 50/74/15
f 18/82/45 20/83/45 51/81/45 26/65/45
f 21/73/46 19/64/46 35/64/46 43/73/46
f 20/83/47 21/73/47 43/73/47 51/81/47
o Cylinder
v 0.174214 -0.283800 -1.694537
v -0.174214 -0.283800 -1.694537
v 0.174214 -0.088710 -1.675323
v -0.174214 -0.088710 -1.675323
v 0.174214 0.098883 -1.618417
v -0.174214 0.098883 -1.618417
v 0.174214 0.271770 -1.526007
v -0.174214 0.271770 -1.526007
v 0.174214 0.423307 -1.401644
v -0.174214 0.423306 -1.401644
v 0.174214 0.547669 -1.250108
v -0.174214 0.547669 -1.250108
v 0.174214 0.640079 -1.077221
v -0.174214 0.640079 -1.077221
v 0.174214 0.696985 -0.889628
v -0.174214 0.696985 -0.889628
v 0.174214 0.716200 -0.694537
v -0.174214 0.716200 -0.694537
v 0.174214 0.696985 -0.499447
v -0.174214 0.696985 -0.499447
v -0.174214 0.657571 -0.369517
v 0.174214 0.657571 -0.369517
v -0.174214 0.582114 -0.618267
v -0.174214 0.407563 -0.944829
v -0.174214 -0.113577 -1.465969
v -0.174214 0.172657 -1.231063
v 0.174214 -0.113577 -1.465969
v 0.174214 0.582114 -0.618267
v 0.174214 0.407563 -0.944829
v 0.174214 0.172657 -1.231063
v -0.174214 -0.467513 -1.676443
v -0.174214 -0.169367 -1.495789
v -0.174214 -0.144249 -1.592363
v 0.174214 -0.467513 -1.676443
v 0.174214 -0.169367 -1.495789
v 0.174214 -0.144249 -1.592363
v -1.694537 -0.283800 -0.174214
v -1.694537 -0.283800 0.174214
v -1.675322 -0.088710 -0.174214
v -1.675322 -0.088710 0.174214
v -1.618417 0.098883 -0.174214
v -1.618417 0.098883 0.174214
v -1.526007 0.271770 -0.174214
v -1.526007 0.271770 0.174214
v -1.401644 0.423307 -0.174214
v -1.401644 0.423306 0.174214
v -1.250107 0.547669 -0.174214
v -1.250107 0.547669 0.174214
v -1.077221 0.640079 -0.174214
v -1.077221 0.640079 0.174214
v -0.889628 0.696985 -0.174214
v -0.889628 0.696985 0.174214
v -0.694537 0.716200 -0.174214
v -0.694537 0.716200 0.174214
v -0.499447 0.696985 -0.174214
v -0.499447 0.696985 0.174214
v -0.369517 0.657571 0.174214
v -0.369517 0.657571 -0.174214
v -0.618267 0.582114 0.174214
v -0.944829 0.407563 0.174214
v -1.465969 -0.113577 0.174214
v -1.231063 0.172657 0.174214
v -1.465969 -0.113577 -0.174214
v -0.618267 0.582114 -0.174214
v -0.944829 0.407563 -0.174214
v -1.231063 0.172657 -0.174214
v -1.676443 -0.467513 0.174214
v -1.495789 -0.169367 0.174214
v -1.592363 -0.144249 0.174214
v -1.676443 -0.467513 -0.174214
v -1.495789 -0.169367 -0.174214
v -1.592363 -0.144249 -0.174214
v -0.174214 -0.283800 1.694537
v 0.174215 -0.283800 1.694537
v -0.174214 -0.088710 1.675323
v 0.174215 -0.088710 1.675323
v -0.174214 0.098883 1.618417
v 0.174214 0.098883 1.618417
v -0.174214 0.271770 1.526007
v 0.174214 0.271770 1.526007
v -0.174214 0.423307 1.401644
v 0.174214 0.423306 1.401644
v -0.174214 0.547669 1.250108
v 0.174214 0.547669 1.250108
v -0.174214 0.640079 1.077221
v 0.174214 0.640079 1.077221
v -0.174214 0.696985 0.889628
v 0.174214 0.696985 0.889628
v -0.174214 0.716200 0.694537
v 0.174214 0.716200 0.694537
v -0.174214 0.696985 0.499447
v 0.174214 0.696985 0.499447
v 0.174214 0.657571 0.369517
v -0.174214 0.657571 0.369517
v 0.174214 0.582114 0.618267
v 0.174214 0.407563 0.944829
v 0.174214 -0.113577 1.465969
v 0.174214 0.172657 1.231063
v -0.174214 -0.113577 1.465969
v -0.174214 0.582114 0.618267
v -0.174214 0.407563 0.944829
v -0.174214 0.172657 1.231063
v 0.174215 -0.467513 1.676443
v 0.174214 -0.169367 1.495789
v 0.174214 -0.144249 1.592363
v -0.174214 -0.467513 1.676443
v -0.174214 -0.169367 1.495789
v -0.174214 -0.144249 1.592363
v 1.694537 -0.283800 0.174214
v 1.694537 -0.283800 -0.174214
v 1.675322 -0.088710 0.174214
v 1.675322 -0.088710 -0.174214
v 1.618417 0.098883 0.174214
v 1.618417 0.098883 -0.174214
v 1.526007 0.271770 0.174214
v 1.526007 0.271770 -0.174214
v 1.401644 0.423307 0.174214
v 1.401644 0.423306 -0.174214
v 1.250107 0.547669 0.174214
v 1.250107 0.547669 -0.174214
v 1.077221 0.640079 0.174214
v 1.077221 0.640079 -0.174214
v 0.889628 0.696985 0.174214
v 0.889628 0.696985 -0.174214
v 0.694537 0.716200 0.174214
v 0.694537 0.716200 -0.174214
v 0.499447 0.696985 0.174214
v 0.499447 0.696985 -0.174214
v 0.369517 0.657571 -0.174214
v 0.369517 0.657571 0.174214
v 0.618267 0.582114 -0.174214
v 0.944829 0.407563 -0.174214
v 1.465969 -0.113577 -0.174214
v 1.231063 0.172657 -0.174214
v 1.465969 -0.113577 0.174214
v 0.618267 0.582114 0.174214
v 0.944829 0.407563 0.174214
v 1.231063 0.172657 0.174214
v 1.676443 -0.467513 -0.174214
v 1.495789 -0.169367 -0.174214
v 1.592363 -0.144249 -0.174214
v 1.676443 -0.467513 0.174214
v 1.495789 -0.169367 0.174214
v 1.592363 -0.144249 0.174214
vn -0.0000 -0.0000 -1.0000
vn -0.0000 0.1951 -0.9808
vn -0.0000 0.3827 -0.9239
vn -0.0000 0.5556 -0.8315
vn -0.0000 0.7071 -0.7071
vn -0.0000 0.8315 -0.5556
vn -0.0000 0.9239 -0.3827
vn -0.0000 0.9808 -0.1951
vn -0.0000 1.0000 -0.0000
vn -0.0000 0.9808 0.1951
vn -0.0000 -0.0000 1.0000
vn -1.0000 -0.0000 -0.0000
vn -0.0000 -0.0980 -0.9952
vn 1.0000 -0.0000 -0.0000
vn -0.0000 -0.4714 0.8819
vn -0.0000 -0.5556 0.8315
vn -0.0000 -0.7071 0.7071
vn -0.0000 -0.8315 0.5556
vn -0.0000 -0.9239 0.3827
vn -0.0000 -0.2517 0.9678
vn -0.0000 -0.9678 -0.2517
vn -0.9808 0.1951 -0.0000
vn -0.9239 0.3827 -0.0000
vn -0.8315 0.5556 -0.0000
vn -0.7071 0.7071 -0.0000
vn -0.5556 0.8315 -0.0000
vn -0.3827 0.9239 -0.0000
vn -0.1951 0.9808 -0.0000
vn 0.1951 0.9808 -0.0000
vn -0.9952 -0.0980 -0.0000
vn 0.8819 -0.4714 -0.0000
vn 0.8315 -0.5556 -0.0000
vn 0.7071 -0.7071 -0.0000
vn 0.5556 -0.8315 -0.0000
vn 0.3827 -0.9239 -0.0000
vn 0.9678 -0.2517 -0.0000
vn -0.2517 -0.9678 -0.0000
vn -0.0000 0.1951 0.9808
vn -0.0000 0.3827 0.9239
vn -0.0000 0.5556 0.8315
vn -0.0000 0.7071 0.7071
vn -0.0000 0.8315 0.5556
vn -0.0000 0.9239 0.3827
vn -0.0000 -0.0980 0.9952
vn -0.0000 -0.4714 -0.8819
vn -0.0000 -0.5556 -0.8315
vn -0.0000 -0.7071 -0.7071
vn -0.0000 -0.8315 -0.5556
vn -0.0000 -0.9239 -0.3827
vn -0.0000 -0.2517 -0.9678
vn -0.0000 -0.9678 0.2517
vn 0.9808 0.1951 -0.0000
vn 0.9239 0.3827 -0.0000
vn 0.8315 0.5556 -0.0000
vn 0.7071 0.7071 -0.0000
vn 0.5556 0.8315 -0.0000
vn 0.3827 0.9239 -0.0000
vn 0.9952 -0.0980 -0.0000
vn -0.8819 -0.4714 -0.0000
vn -0.8315 -0.5556 -0.0000
vn -0.7071 -0.7071 -0.0000
vn -0.5556 -0.8315 -0.0000
vn -0.3827 -0.9239 -0.0000
vn -0.9678 -0.2517 -0.0000
vn 0.2517 -0.9678 -0.0000
vt 0.031884 0.107349
vt 0.189721 0.107349
vt 0.189721 0.196151
vt 0.031884 0.196151
vt 0.189721 0.284954
vt 0.031884 0.284954
vt 0.189721 0.373756
vt 0.031884 0.373757
vt 0.189721 0.462559
vt 0.031884 0.462559
vt 0.189721 0.551362
vt 0.031884 0.551362
vt 0.189721 0.640164
vt 0.031884 0.640164
vt 0.189721 0.728967
vt 0.031884 0.728967
vt 0.189721 0.817770
vt 0.031884 0.817770
vt 0.189721 0.906572
vt 0.031884 0.906572
vt 0.031884 0.968078
vt 0.189721 0.968078
vt 0.780549 0.919918
vt 0.849245 0.863540
vt 0.905623 0.794844
vt 0.947515 0.716469
vt 0.965625 0.656769
vt 0.975084 0.687953
vt 0.979696 0.734774
vt 0.975084 0.781596
vt 0.961427 0.826618
vt 0.939248 0.868111
vt 0.909401 0.904480
vt 0.873033 0.934327
vt 0.831540 0.956505
vt 0.786517 0.970163
vt 0.739696 0.974774
vt 0.695605 0.970432
vt 0.773188 0.950252
vt 0.767160 0.927075
vt 0.189721 0.023725
vt 0.031884 0.023725
vt 0.786517 0.970163
vt 0.831540 0.956505
vt 0.873033 0.934327
vt 0.939248 0.868111
vt 0.975084 0.781596
vt 0.975084 0.687953
vt 0.947515 0.716469
vt 0.905623 0.794844
vt 0.849245 0.863540
vt 0.780549 0.919918
vt 0.767160 0.927075
vt 0.773188 0.950253
vt 0.436309 0.024730
vt 0.436309 0.066440
vt 0.206572 0.066440
vt 0.206572 0.024730
vt 0.436309 0.310588
vt 0.206572 0.310588
vt 0.436309 0.554735
vt 0.206572 0.554735
vt 0.206572 0.798883
vt 0.436309 0.798883
vt 0.206572 0.970276
vt 0.436309 0.970276
vt 0.802614 0.528357
vt 0.846959 0.528345
vt 0.846906 0.570869
vt 0.802598 0.570824
vt 0.802598 0.515664
vt 0.846929 0.515646
vt 0.031884 0.107349
vt 0.189721 0.107349
vt 0.189721 0.196151
vt 0.031884 0.196151
vt 0.189721 0.284954
vt 0.031884 0.284954
vt 0.189721 0.373756
vt 0.031884 0.373757
vt 0.189721 0.462559
vt 0.031884 0.462559
vt 0.189721 0.551362
vt 0.031884 0.551362
vt 0.189721 0.640164
vt 0.031884 0.640164
vt 0.189721 0.728967
vt 0.189721 0.817770
vt 0.189721 0.906572
vt 0.031884 0.906572
vt 0.031884 0.968078
vt 0.189721 0.968078
vt 0.031884 0.023725
vt 0.206572 0.970276
vt 0.206572 0.928566
vt 0.436309 0.928566
vt 0.206572 0.684419
vt 0.436309 0.684419
vt 0.206572 0.440271
vt 0.436309 0.440271
vt 0.436309 0.196123
vt 0.206572 0.196123
vt 0.436309 0.024730
vt 0.206572 0.024730
vt 0.846960 0.502907
vt 0.802598 0.502934
vt 0.802708 0.460381
vt 0.846997 0.460469
vt 0.846997 0.515586
vt 0.802674 0.515646
vt 0.031884 0.107349
vt 0.189721 0.107349
vt 0.189721 0.196151
vt 0.031884 0.196151
vt 0.189721 0.284954
vt 0.031884 0.284954
vt 0.031884 0.373757
vt 0.189721 0.462559
vt 0.031884 0.462559
vt 0.031884 0.551362
vt 0.031884 0.728967
vt 0.031884 0.817770
vt 0.031884 0.906572
vt 0.031884 0.968078
vt 0.189721 0.968078
vt 0.189721 0.023725
vt 0.031884 0.023725
vt 0.206572 0.066440
vt 0.206572 0.024730
vt 0.436309 0.310588
vt 0.206572 0.310588
vt 0.206572 0.554735
vt 0.206572 0.798883
vt 0.436309 0.798883
vt 0.206572 0.970276
vt 0.436309 0.970277
vt 0.847012 0.473091
vt 0.891358 0.473079
vt 0.891304 0.515604
vt 0.846997 0.515558
vt 0.846997 0.460399
vt 0.891327 0.460381
vt 0.189721 0.107349
vt 0.031884 0.196151
vt 0.189721 0.284954
vt 0.031884 0.284954
vt 0.189721 0.373756
vt 0.031884 0.373756
vt 0.031884 0.462559
vt 0.189721 0.551362
vt 0.031884 0.551362
vt 0.031884 0.640164
vt 0.206572 0.066440
vt 0.436309 0.310588
vt 0.436309 0.554735
vt 0.206572 0.554735
vt 0.206572 0.798883
vt 0.436309 0.798883
vt 0.436309 0.970276
vt 0.847012 0.528314
vt 0.891358 0.528302
vt 0.891304 0.570827
vt 0.846997 0.570781
vt 0.846997 0.515622
vt 0.891327 0.515604
s 1
usemtl wings
f 58/84/48 59/85/48 61/86/49 60/87/49
f 60/87/49 61/86/49 63/88/50 62/89/50
f 62/89/50 63/88/50 65/90/51 64/91/51
f 64/91/51 65/90/51 67/92/52 66/93/52
f 66/93/52 67/92/52 69/94/53 68/95/53
f 68/95/53 69/94/53 71/96/54 70/97/54
f 70/97/54 71/96/54 73/98/55 72/99/55
f 72/99/55 73/98/55 75/100/56 74/101/56
f 74/101/56 75/100/56 77/102/57 76/103/57
f 79/104/58 76/103/57 77/102/57 78/105/58
f 82/106/59 83/107/59 81/108/59 80/109/59 78/110/59 77/111/59 75/112/59 73/113/59 71/114/59 69/115/59 67/116/59 65/117/59 63/118/59 61/119/59 59/120/59 88/121/59 90/122/59 89/123/59
f 88/124/60 59/85/48 58/84/48 91/125/60
f 91/121/61 58/120/61 60/126/61 62/127/61 64/128/61 66/116/61 68/129/61 70/114/61 72/130/61 74/112/61 76/131/61 79/110/61 85/132/61 86/133/61 87/134/61 84/135/61 92/136/61 93/137/61
f 92/138/62 84/139/63 82/140/63 89/141/62
f 87/142/64 83/143/64 82/140/63 84/139/63
f 83/143/64 87/142/64 86/144/65 81/145/65
f 80/146/66 81/145/65 86/144/65 85/147/66
f 78/148/58 80/146/66 85/147/66 79/149/58
f 93/150/67 90/151/67 88/152/67 91/153/67
f 90/151/68 93/150/68 92/154/68 89/155/68
f 94/156/59 95/157/59 97/158/69 96/159/69
f 96/159/69 97/158/69 99/160/70 98/161/70
f 98/161/70 99/160/70 101/162/71 100/163/71
f 100/163/71 101/162/71 103/164/72 102/165/72
f 102/165/72 103/164/72 105/166/73 104/167/73
f 104/167/73 105/166/73 107/168/74 106/169/74
f 106/169/74 107/168/74 109/170/75 108/99/75
f 108/99/75 109/170/75 111/171/56 110/101/56
f 110/101/56 111/171/56 113/172/76 112/173/76
f 115/174/61 112/173/76 113/172/76 114/175/61
f 118/106/58 119/107/58 117/108/58 116/109/58 114/110/58 113/111/58 111/112/58 109/113/58 107/114/58 105/115/58 103/116/58 101/117/58 99/118/58 97/119/58 95/120/58 124/121/58 126/122/58 125/123/58
f 124/124/77 95/157/59 94/156/59 127/176/77
f 127/121/48 94/120/48 96/126/48 98/127/48 100/128/48 102/116/48 104/129/48 106/114/48 108/130/48 110/112/48 112/131/48 115/110/48 121/132/48 122/133/48 123/134/48 120/135/48 128/136/48 129/137/48
f 128/177/78 120/178/79 118/179/79 125/149/78
f 123/180/80 119/181/80 118/179/79 120/178/79
f 119/181/80 123/180/80 122/182/81 117/183/81
f 116/184/82 117/183/81 122/182/81 121/185/82
f 114/186/61 116/184/82 121/185/82 115/187/61
f 129/188/83 126/189/83 124/190/83 127/191/83
f 126/189/84 129/188/84 128/192/84 125/193/84
f 130/194/58 131/195/58 133/196/85 132/197/85
f 132/197/85 133/196/85 135/198/86 134/199/86
f 134/199/86 135/198/86 137/90/87 136/200/87
f 136/200/87 137/90/87 139/201/88 138/202/88
f 138/202/88 139/201/88 141/94/89 140/203/89
f 140/203/89 141/94/89 143/96/90 142/97/90
f 142/97/90 143/96/90 145/170/57 144/204/57
f 144/204/57 145/170/57 147/100/56 146/205/56
f 146/205/56 147/100/56 149/172/55 148/206/55
f 151/207/48 148/206/55 149/172/55 150/208/48
f 154/106/61 155/107/61 153/108/61 152/109/61 150/110/61 149/111/61 147/112/61 145/113/61 143/114/61 141/115/61 139/116/61 137/117/61 135/118/61 133/119/61 131/120/61 160/121/61 162/122/61 161/123/61
f 160/209/91 131/195/58 130/194/58 163/210/91
f 163/121/59 130/120/59 132/126/59 134/127/59 136/128/59 138/116/59 140/129/59 142/114/59 144/130/59 146/112/59 148/131/59 151/110/59 157/132/59 158/133/59 159/134/59 156/135/59 164/136/59 165/137/59
f 164/138/92 156/139/93 154/211/93 161/212/92
f 159/213/94 155/214/94 154/211/93 156/139/93
f 155/214/94 159/213/94 158/144/95 153/215/95
f 152/216/96 153/215/95 158/144/95 157/217/96
f 150/218/48 152/216/96 157/217/96 151/219/48
f 165/220/97 162/221/97 160/222/97 163/223/97
f 162/221/98 165/220/98 164/224/98 161/225/98
f 166/156/61 167/226/61 169/158/99 168/227/99
f 168/227/99 169/158/99 171/228/100 170/229/100
f 170/229/100 171/228/100 173/230/101 172/231/101
f 172/231/101 173/230/101 175/164/102 174/232/102
f 174/232/102 175/164/102 177/233/103 176/234/103
f 176/234/103 177/233/103 179/168/104 178/235/104
f 178/235/104 179/168/104 181/170/76 180/99/76
f 180/99/76 181/170/76 183/100/56 182/101/56
f 182/101/56 183/100/56 185/172/75 184/103/75
f 187/104/59 184/103/75 185/172/75 186/105/59
f 190/106/48 191/107/48 189/108/48 188/109/48 186/110/48 185/111/48 183/112/48 181/113/48 179/114/48 177/115/48 175/116/48 173/117/48 171/118/48 169/119/48 167/120/48 196/121/48 198/122/48 197/123/48
f 196/124/105 167/226/61 166/156/61 199/125/105
f 199/121/58 166/120/58 168/126/58 170/127/58 172/128/58 174/116/58 176/129/58 178/114/58 180/130/58 182/112/58 184/131/58 187/110/58 193/132/58 194/133/58 195/134/58 192/135/58 200/136/58 201/137/58
f 200/138/106 192/139/107 190/236/107 197/212/106
f 195/237/108 191/143/108 190/236/107 192/139/107
f 191/143/108 195/237/108 194/238/109 189/239/109
f 188/240/110 189/239/109 194/238/109 193/241/110
f 186/218/59 188/240/110 193/241/110 187/242/59
f 201/243/111 198/244/111 196/245/111 199/246/111
f 198/244/112 201/243/112 200/247/112 197/248/112
o Icosphere
v 0.000000 0.687975 0.000000
v 0.155701 0.806919 0.113122
v -0.059472 0.806919 0.183038
v -0.192457 0.806919 0.000000
v -0.059472 0.806919 -0.183038
v 0.155701 0.806919 -0.113122
v 0.059472 0.999379 0.183038
v -0.155701 0.999379 0.113122
v -0.155701 0.999379 -0.113122
v 0.059472 0.999379 -0.183038
v 0.192457 0.999378 0.000000
v 0.000000 1.118322 0.000000
v -0.034956 0.720110 0.107586
v 0.091518 0.720110 0.066491
v 0.056563 0.790024 0.174078
v 0.183037 0.790024 0.000000
v 0.091518 0.720110 -0.066491
v -0.113123 0.720111 0.000000
v -0.148080 0.790024 0.107586
v -0.034956 0.720110 -0.107586
v -0.148080 0.790024 -0.107586
v 0.056563 0.790024 -0.174078
v 0.204643 0.903149 0.066491
v 0.204643 0.903149 -0.066491
v 0.000000 0.903149 0.215174
v 0.126476 0.903149 0.174079
v -0.204643 0.903149 0.066491
v -0.126476 0.903149 0.174079
v -0.126476 0.903149 -0.174079
v -0.204643 0.903149 -0.066491
v 0.126476 0.903149 -0.174079
v 0.000000 0.903149 -0.215174
v 0.148080 1.016273 0.107586
v -0.056563 1.016274 0.174078
v -0.183037 1.016273 0.000000
v -0.056563 1.016274 -0.174078
v 0.148080 1.016273 -0.107586
v 0.034956 1.086187 0.107586
v 0.113123 1.086187 0.000000
v -0.091518 1.086187 0.066491
v -0.091518 1.086187 -0.066491
v 0.034956 1.086187 -0.107586
v 0.000000 0.927750 -0.177309
v 0.000000 1.068324 -0.410208
v 0.007577 0.928671 -0.176753
v 0.007577 1.069245 -0.409652
v 0.014863 0.931397 -0.175108
v 0.014863 1.071971 -0.408006
v 0.021578 0.935824 -0.172435
v 0.021578 1.076399 -0.405334
v 0.027464 0.941782 -0.168839
v 0.027464 1.082357 -0.401738
v 0.032294 0.949042 -0.164457
v 0.032294 1.089617 -0.397356
v 0.035883 0.957325 -0.159458
v 0.035883 1.097900 -0.392357
v 0.038093 0.966312 -0.154033
v 0.038093 1.106887 -0.386932
v 0.038840 0.975659 -0.148392
v 0.038840 1.116233 -0.381290
v 0.038093 0.985006 -0.142750
v 0.038093 1.125580 -0.375649
v 0.035883 0.993993 -0.137325
v 0.035883 1.134567 -0.370224
v 0.032294 1.002276 -0.132326
v 0.032294 1.142850 -0.365225
v 0.027464 1.009536 -0.127944
v 0.027464 1.150110 -0.360843
v 0.021578 1.015494 -0.124348
v 0.021578 1.156068 -0.357247
v 0.014863 1.019921 -0.121676
v 0.014863 1.160496 -0.354574
v 0.007577 1.022648 -0.120030
v 0.007577 1.163222 -0.352929
v 0.000000 1.023568 -0.119474
v 0.000000 1.164142 -0.352373
v -0.007577 1.022648 -0.120030
v -0.007577 1.163222 -0.352929
v -0.014863 1.019921 -0.121676
v -0.014863 1.160496 -0.354574
v -0.021578 1.015494 -0.124348
v -0.021578 1.156068 -0.357247
v -0.027464 1.009536 -0.127944
v -0.027464 1.150110 -0.360843
v -0.032294 1.002276 -0.132326
v -0.032294 1.142850 -0.365225
v -0.035883 0.993993 -0.137325
v -0.035883 1.134567 -0.370224
v -0.038093 0.985006 -0.142750
v -0.038093 1.125580 -0.375649
v -0.038840 0.975659 -0.148392
v -0.038840 1.116233 -0.381290
v -0.038093 0.966312 -0.154033
v -0.038093 1.106887 -0.386932
v -0.035883 0.957325 -0.159458
v -0.035883 1.097900 -0.392357
v -0.032294 0.949042 -0.164457
v -0.032294 1.089617 -0.397356
v -0.027464 0.941782 -0.168839
v -0.027464 1.082357 -0.401738
v -0.021578 0.935824 -0.172435
v -0.021578 1.076399 -0.405334
v -0.014863 0.931397 -0.175108
v -0.014863 1.071971 -0.408006
v -0.007577 0.928671 -0.176753
v -0.007577 1.069245 -0.409652
v 0.000000 0.927750 0.177309
v 0.000000 1.068324 0.410208
v -0.007577 0.928671 0.176753
v -0.007577 1.069245 0.409652
v -0.014863 0.931397 0.175108
v -0.014863 1.071971 0.408006
v -0.021578 0.935824 0.172435
v -0.021578 1.076399 0.405334
v -0.027464 0.941782 0.168839
v -0.027464 1.082357 0.401738
v -0.032294 0.949042 0.164457
v -0.032294 1.089617 0.397356
v -0.035883 0.957325 0.159458
v -0.035883 1.097900 0.392357
v -0.038093 0.966312 0.154033
v -0.038093 1.106887 0.386932
v -0.038840 0.975659 0.148392
v -0.038840 1.116233 0.381290
v -0.038093 0.985006 0.142750
v -0.038093 1.125580 0.375649
v -0.035883 0.993993 0.137325
v -0.035883 1.134567 0.370224
v -0.032294 1.002276 0.132326
v -0.032294 1.142850 0.365225
v -0.027464 1.009536 0.127944
v -0.027464 1.150110 0.360843
v -0.021578 1.015494 0.124348
v -0.021578 1.156068 0.357247
v -0.014863 1.019921 0.121676
v -0.014863 1.160496 0.354574
v -0.007577 1.022648 0.120030
v -0.007577 1.163222 0.352929
v 0.000000 1.023568 0.119474
v 0.000000 1.164142 0.352373
v 0.007577 1.022648 0.120030
v 0.007577 1.163222 0.352929
v 0.014863 1.019921 0.121676
v 0.014863 1.160496 0.354574
v 0.021578 1.015494 0.124348
v 0.021578 1.156068 0.357247
v 0.027464 1.009536 0.127944
v 0.027464 1.150110 0.360843
v 0.032294 1.002276 0.132326
v 0.032294 1.142850 0.365225
v 0.035883 0.993993 0.137325
v 0.035883 1.134567 0.370224
v 0.038093 0.985006 0.142750
v 0.038093 1.125580 0.375649
v 0.038840 0.975659 0.148392
v 0.038840 1.116233 0.381290
v 0.038093 0.966312 0.154033
v 0.038093 1.106887 0.386932
v 0.035883 0.957325 0.159458
v 0.035883 1.097900 0.392357
v 0.032294 0.949042 0.164457
v 0.032294 1.089617 0.397356
v 0.027464 0.941782 0.168839
v 0.027464 1.082357 0.401738
v 0.021578 0.935824 0.172435
v 0.021578 1.076399 0.405334
v 0.014863 0.931397 0.175108
v 0.014863 1.071971 0.408006
v 0.007577 0.928671 0.176753
v 0.007577 1.069245 0.409652
vn 0.1024 -0.9435 0.3151
vn 0.7002 -0.6617 0.2680
vn -0.2680 -0.9435 0.1947
vn -0.2680 -0.9435 -0.1947
vn 0.1024 -0.9435 -0.3151
vn 0.9050 -0.3304 0.2680
vn 0.0247 -0.3304 0.9435
vn -0.8897 -0.3304 0.3151
vn -0.5746 -0.3304 -0.7488
vn 0.5346 -0.3304 -0.7779
vn 0.8026 -0.1256 0.5831
vn -0.3066 -0.1256 0.9435
vn -0.9921 -0.1256 -0.0000
vn -0.3066 -0.1256 -0.9435
vn 0.8026 -0.1256 -0.5831
vn 0.4089 0.6617 0.6284
vn -0.4713 0.6617 0.5831
vn -0.7002 0.6617 -0.2680
vn 0.0385 0.6617 -0.7488
vn 0.7240 0.6617 -0.1947
vn 0.2680 0.9435 -0.1947
vn 0.4911 0.7947 -0.3568
vn 0.4089 0.6617 -0.6284
vn -0.1024 0.9435 -0.3151
vn -0.1876 0.7947 -0.5773
vn -0.4713 0.6617 -0.5831
vn -0.3313 0.9435 -0.0000
vn -0.6071 0.7947 -0.0000
vn -0.7002 0.6617 0.2680
vn -0.1024 0.9435 0.3151
vn -0.1876 0.7947 0.5773
vn 0.0385 0.6617 0.7488
vn 0.2680 0.9435 0.1947
vn 0.4911 0.7947 0.3568
vn 0.7240 0.6617 0.1947
vn 0.8897 0.3304 -0.3151
vn 0.7947 0.1876 -0.5773
vn 0.5746 0.3304 -0.7488
vn -0.0247 0.3304 -0.9435
vn -0.3035 0.1876 -0.9342
vn -0.5346 0.3304 -0.7779
vn -0.9050 0.3304 -0.2680
vn -0.9822 0.1876 -0.0000
vn -0.9050 0.3304 0.2680
vn -0.5346 0.3304 0.7779
vn -0.3035 0.1876 0.9342
vn -0.0247 0.3304 0.9435
vn 0.5746 0.3304 0.7488
vn 0.7947 0.1876 0.5773
vn 0.8897 0.3304 0.3151
vn 0.3066 0.1256 -0.9435
vn 0.3035 -0.1876 -0.9342
vn 0.0247 -0.3304 -0.9435
vn -0.8026 0.1256 -0.5831
vn -0.7947 -0.1876 -0.5773
vn -0.8897 -0.3304 -0.3151
vn -0.8026 0.1256 0.5831
vn -0.7947 -0.1876 0.5773
vn -0.5746 -0.3304 0.7488
vn 0.3066 0.1256 0.9435
vn 0.3035 -0.1876 0.9342
vn 0.5346 -0.3304 0.7779
vn 0.9921 0.1256 -0.0000
vn 0.9822 -0.1876 -0.0000
vn 0.9050 -0.3304 -0.2680
vn 0.4713 -0.6617 -0.5831
vn 0.1876 -0.7947 -0.5773
vn -0.0385 -0.6617 -0.7488
vn -0.4089 -0.6617 -0.6284
vn -0.4911 -0.7947 -0.3568
vn -0.7240 -0.6617 -0.1947
vn -0.7240 -0.6617 0.1947
vn -0.4911 -0.7947 0.3568
vn -0.4089 -0.6617 0.6284
vn 0.7002 -0.6617 -0.2680
vn 0.6071 -0.7947 -0.0000
vn 0.3313 -0.9435 -0.0000
vn -0.0385 -0.6617 0.7488
vn 0.1876 -0.7947 0.5773
vn 0.4713 -0.6617 0.5831
vn 0.1405 -0.8476 -0.5116
vn 0.4005 -0.7845 -0.4735
vn 0.6102 -0.6783 -0.4094
vn 0.7635 -0.5528 -0.3337
vn 0.8689 -0.4237 -0.2558
vn 0.9376 -0.2978 -0.1797
vn 0.9785 -0.1764 -0.1065
vn 0.9977 -0.0584 -0.0352
vn 0.9977 0.0584 0.0352
vn 0.9785 0.1764 0.1065
vn 0.9376 0.2978 0.1797
vn 0.8689 0.4237 0.2558
vn 0.7635 0.5529 0.3337
vn 0.6102 0.6783 0.4094
vn 0.4005 0.7845 0.4735
vn 0.1405 0.8476 0.5116
vn -0.1405 0.8476 0.5116
vn -0.4005 0.7845 0.4735
vn -0.6102 0.6783 0.4094
vn -0.7635 0.5529 0.3337
vn -0.8689 0.4237 0.2558
vn -0.9376 0.2978 0.1797
vn -0.9785 0.1764 0.1065
vn -0.9977 0.0584 0.0352
vn -0.9977 -0.0584 -0.0352
vn -0.9785 -0.1764 -0.1065
vn -0.9376 -0.2978 -0.1797
vn -0.8689 -0.4237 -0.2558
vn -0.7635 -0.5528 -0.3337
vn -0.6102 -0.6783 -0.4094
vn -0.0000 0.5168 -0.8561
vn -0.4005 -0.7845 -0.4735
vn -0.1405 -0.8476 -0.5116
vn -0.0000 -0.5168 0.8561
vn -0.1405 -0.8476 0.5116
vn -0.4005 -0.7845 0.4735
vn -0.6102 -0.6783 0.4094
vn -0.7635 -0.5528 0.3337
vn -0.8689 -0.4237 0.2558
vn -0.9376 -0.2978 0.1797
vn -0.9785 -0.1764 0.1065
vn -0.9977 -0.0584 0.0352
vn -0.9977 0.0584 -0.0352
vn -0.9785 0.1764 -0.1065
vn -0.9376 0.2978 -0.1797
vn -0.8689 0.4237 -0.2558
vn -0.7635 0.5529 -0.3337
vn -0.6102 0.6783 -0.4094
vn -0.4005 0.7845 -0.4735
vn -0.1405 0.8476 -0.5116
vn 0.1405 0.8476 -0.5116
vn 0.4005 0.7845 -0.4735
vn 0.6102 0.6783 -0.4094
vn 0.7635 0.5529 -0.3337
vn 0.8689 0.4237 -0.2558
vn 0.9376 0.2978 -0.1797
vn 0.9785 0.1764 -0.1065
vn 0.9977 0.0584 -0.0352
vn 0.9977 -0.0584 0.0352
vn 0.9785 -0.1764 0.1065
vn 0.9376 -0.2978 0.1797
vn 0.8689 -0.4237 0.2558
vn 0.7635 -0.5528 0.3337
vn 0.6102 -0.6783 0.4094
vn -0.0000 0.5168 0.8561
vn 0.4005 -0.7845 0.4735
vn 0.1405 -0.8476 0.5116
vn -0.0000 -0.5168 -0.8561
vt 0.181819 0.000000
vt 0.227273 0.078731
vt 0.136365 0.078731
vt 0.272728 0.157461
vt 0.318182 0.078731
vt 0.363637 0.157461
vt 0.909091 0.000000
vt 0.954545 0.078731
vt 0.863636 0.078731
vt 0.727273 0.000000
vt 0.772727 0.078731
vt 0.681818 0.078731
vt 0.545455 0.000000
vt 0.590909 0.078731
vt 0.500000 0.078731
vt 0.318182 0.236191
vt 0.090910 0.157461
vt 0.181819 0.157461
vt 0.136365 0.236191
vt 0.818182 0.157461
vt 0.909091 0.157461
vt 0.863636 0.236191
vt 0.636364 0.157461
vt 0.727273 0.157461
vt 0.681818 0.236191
vt 0.454546 0.157461
vt 0.545455 0.157461
vt 0.500000 0.236191
vt 0.227273 0.236191
vt 0.045455 0.236191
vt 0.772727 0.236191
vt 0.590909 0.236191
vt 0.409092 0.236191
vt 0.181819 0.314921
vt 0.272728 0.314921
vt 0.227273 0.393651
vt 0.000000 0.314921
vt 0.090910 0.314921
vt 0.045455 0.393651
vt 0.727273 0.314921
vt 0.818182 0.314921
vt 0.772727 0.393651
vt 0.545455 0.314921
vt 0.636364 0.314921
vt 0.590909 0.393651
vt 0.363637 0.314921
vt 0.454546 0.314921
vt 0.409092 0.393651
vt 0.500000 0.393651
vt 0.454546 0.472382
vt 0.681818 0.393651
vt 0.636364 0.472382
vt 0.863636 0.393651
vt 0.818182 0.472382
vt 0.909091 0.314921
vt 0.136365 0.393651
vt 0.090910 0.472382
vt 0.318182 0.393651
vt 0.272728 0.472382
vt 0.954545 0.236191
vt 1.000000 0.157461
vt 0.409092 0.078731
vt 0.363637 0.000000
vt 1.000000 0.500000
vt 1.000000 1.000000
vt 0.968750 1.000000
vt 0.968750 0.500000
vt 0.937500 1.000000
vt 0.937500 0.500000
vt 0.906250 1.000000
vt 0.906250 0.500000
vt 0.875000 1.000000
vt 0.875000 0.500000
vt 0.843750 1.000000
vt 0.843750 0.500000
vt 0.812500 1.000000
vt 0.812500 0.500000
vt 0.781250 1.000000
vt 0.781250 0.500000
vt 0.750000 1.000000
vt 0.750000 0.500000
vt 0.718750 1.000000
vt 0.718750 0.500000
vt 0.687500 1.000000
vt 0.687500 0.500000
vt 0.656250 1.000000
vt 0.656250 0.500000
vt 0.625000 1.000000
vt 0.625000 0.500000
vt 0.593750 1.000000
vt 0.593750 0.500000
vt 0.562500 1.000000
vt 0.562500 0.500000
vt 0.531250 1.000000
vt 0.531250 0.500000
vt 0.500000 1.000000
vt 0.500000 0.500000
vt 0.468750 1.000000
vt 0.468750 0.500000
vt 0.437500 1.000000
vt 0.437500 0.500000
vt 0.406250 1.000000
vt 0.406250 0.500000
vt 0.375000 1.000000
vt 0.375000 0.500000
vt 0.343750 1.000000
vt 0.343750 0.500000
vt 0.312500 1.000000
vt 0.312500 0.500000
vt 0.281250 1.000000
vt 0.281250 0.500000
vt 0.250000 1.000000
vt 0.250000 0.500000
vt 0.218750 1.000000
vt 0.218750 0.500000
vt 0.187500 1.000000
vt 0.187500 0.500000
vt 0.156250 1.000000
vt 0.156250 0.500000
vt 0.125000 1.000000
vt 0.125000 0.500000
vt 0.093750 1.000000
vt 0.093750 0.500000
vt 0.062500 1.000000
vt 0.062500 0.500000
vt 0.296822 0.485388
vt 0.250000 0.490000
vt 0.203178 0.485388
vt 0.158156 0.471731
vt 0.116663 0.449553
vt 0.080294 0.419706
vt 0.050447 0.383337
vt 0.028269 0.341844
vt 0.014612 0.296822
vt 0.010000 0.250000
vt 0.014612 0.203178
vt 0.028269 0.158156
vt 0.050447 0.116663
vt 0.080294 0.080294
vt 0.116663 0.050447
vt 0.158156 0.028269
vt 0.203178 0.014612
vt 0.250000 0.010000
vt 0.296822 0.014612
vt 0.341844 0.028269
vt 0.383337 0.050447
vt 0.419706 0.080294
vt 0.449553 0.116663
vt 0.471731 0.158156
vt 0.485388 0.203178
vt 0.490000 0.250000
vt 0.485388 0.296822
vt 0.471731 0.341844
vt 0.449553 0.383337
vt 0.419706 0.419706
vt 0.383337 0.449553
vt 0.341844 0.471731
vt 0.031250 1.000000
vt 0.031250 0.500000
vt 0.000000 1.000000
vt 0.000000 0.500000
vt 0.750000 0.490000
vt 0.796822 0.485388
vt 0.841844 0.471731
vt 0.883337 0.449553
vt 0.919706 0.419706
vt 0.949553 0.383337
vt 0.971731 0.341844
vt 0.985388 0.296822
vt 0.990000 0.250000
vt 0.985388 0.203178
vt 0.971731 0.158156
vt 0.949553 0.116663
vt 0.919706 0.080294
vt 0.883337 0.050447
vt 0.841844 0.028269
vt 0.796822 0.014612
vt 0.750000 0.010000
vt 0.703178 0.014612
vt 0.658156 0.028269
vt 0.616663 0.050447
vt 0.580294 0.080294
vt 0.550447 0.116663
vt 0.528269 0.158156
vt 0.514612 0.203178
vt 0.510000 0.250000
vt 0.514612 0.296822
vt 0.528269 0.341844
vt 0.550447 0.383337
vt 0.580294 0.419706
vt 0.616663 0.449553
vt 0.658156 0.471731
vt 0.703178 0.485388
s 0
usemtl Black
f 202/249/113 215/250/113 214/251/113
f 203/252/114 215/253/114 217/254/114
f 202/255/115 214/256/115 219/257/115
f 202/258/116 219/259/116 221/260/116
f 202/261/117 221/262/117 218/263/117
f 203/252/118 217/254/118 224/264/118
f 204/265/119 216/266/119 226/267/119
f 205/268/120 220/269/120 228/270/120
f 206/271/121 222/272/121 230/273/121
f 207/274/122 223/275/122 232/276/122
f 203/252/123 224/264/123 227/277/123
f 204/265/124 226/267/124 229/278/124
f 205/268/125 228/270/125 231/279/125
f 206/271/126 230/273/126 233/280/126
f 207/274/127 232/276/127 225/281/127
f 208/282/128 234/283/128 239/284/128
f 209/285/129 235/286/129 241/287/129
f 210/288/130 236/289/130 242/290/130
f 211/291/131 237/292/131 243/293/131
f 212/294/132 238/295/132 240/296/132
f 240/296/133 243/297/133 213/298/133
f 240/296/134 238/295/134 243/297/134
f 238/295/135 211/291/135 243/297/135
f 243/293/136 242/299/136 213/300/136
f 243/293/137 237/292/137 242/299/137
f 237/292/138 210/288/138 242/299/138
f 242/290/139 241/301/139 213/302/139
f 242/290/140 236/289/140 241/301/140
f 236/289/141 209/303/141 241/301/141
f 241/287/142 239/304/142 213/305/142
f 241/287/143 235/286/143 239/304/143
f 235/286/144 208/282/144 239/304/144
f 239/284/145 240/306/145 213/307/145
f 239/284/146 234/283/146 240/306/146
f 234/283/147 212/294/147 240/306/147
f 225/281/148 238/295/148 212/294/148
f 225/281/149 232/276/149 238/295/149
f 232/276/150 211/291/150 238/295/150
f 233/280/151 237/292/151 211/291/151
f 233/280/152 230/273/152 237/292/152
f 230/273/153 210/288/153 237/292/153
f 231/279/154 236/289/154 210/288/154
f 231/279/155 228/270/155 236/289/155
f 228/270/156 209/303/156 236/289/156
f 229/278/157 235/286/157 209/285/157
f 229/278/158 226/267/158 235/286/158
f 226/267/159 208/282/159 235/286/159
f 227/277/160 234/283/160 208/282/160
f 227/277/161 224/264/161 234/283/161
f 224/264/162 212/294/162 234/283/162
f 232/276/163 233/280/163 211/291/163
f 232/276/164 223/275/164 233/280/164
f 223/275/165 206/271/165 233/280/165
f 230/273/166 231/279/166 210/288/166
f 230/273/167 222/272/167 231/279/167
f 222/272/168 205/268/168 231/279/168
f 228/270/169 229/308/169 209/303/169
f 228/270/170 220/269/170 229/308/170
f 220/269/171 204/309/171 229/308/171
f 226/267/172 227/277/172 208/282/172
f 226/267/173 216/266/173 227/277/173
f 216/266/174 203/252/174 227/277/174
f 224/264/175 225/281/175 212/294/175
f 224/264/176 217/254/176 225/281/176
f 217/254/177 207/274/177 225/281/177
f 218/263/178 223/275/178 207/274/178
f 218/263/179 221/262/179 223/275/179
f 221/262/180 206/271/180 223/275/180
f 221/260/181 222/272/181 206/271/181
f 221/260/182 219/259/182 222/272/182
f 219/259/183 205/268/183 222/272/183
f 219/257/184 220/269/184 205/268/184
f 219/257/185 214/256/185 220/269/185
f 214/256/186 204/309/186 220/269/186
f 217/254/187 218/310/187 207/274/187
f 217/254/188 215/253/188 218/310/188
f 215/253/189 202/311/189 218/310/189
f 214/251/190 216/266/190 204/265/190
f 214/251/191 215/250/191 216/266/191
f 215/250/192 203/252/192 216/266/192
f 244/312/193 245/313/193 247/314/193 246/315/193
f 246/315/194 247/314/194 249/316/194 248/317/194
f 248/317/195 249/316/195 251/318/195 250/319/195
f 250/319/196 251/318/196 253/320/196 252/321/196
f 252/321/197 253/320/197 255/322/197 254/323/197
f 254/323/198 255/322/198 257/324/198 256/325/198
f 256/325/199 257/324/199 259/326/199 258/327/199
f 258/327/200 259/326/200 261/328/200 260/329/200
f 260/329/201 261/328/201 263/330/201 262/331/201
f 262/331/202 263/330/202 265/332/202 264/333/202
f 264/333/203 265/332/203 267/334/203 266/335/203
f 266/335/204 267/334/204 269/336/204 268/337/204
f 268/337/205 269/336/205 271/338/205 270/339/205
f 270/339/206 271/338/206 273/340/206 272/341/206
f 272/341/207 273/340/207 275/342/207 274/343/207
f 274/343/208 275/342/208 277/344/208 276/345/208
f 276/345/209 277/344/209 279/346/209 278/347/209
f 278/347/210 279/346/210 281/348/210 280/349/210
f 280/349/211 281/348/211 283/350/211 282/351/211
f 282/351/212 283/350/212 285/352/212 284/353/212
f 284/353/213 285/352/213 287/354/213 286/355/213
f 286/355/214 287/354/214 289/356/214 288/357/214
f 288/357/215 289/356/215 291/358/215 290/359/215
f 290/359/216 291/358/216 293/360/216 292/361/216
f 292/361/217 293/360/217 295/362/217 294/363/217
f 294/363/218 295/362/218 297/364/218 296/365/218
f 296/365/219 297/364/219 299/366/219 298/367/219
f 298/367/220 299/366/220 301/368/220 300/369/220
f 300/369/221 301/368/221 303/370/221 302/371/221
f 302/371/222 303/370/222 305/372/222 304/373/222
f 247/374/223 245/375/223 307/376/223 305/377/223 303/378/223 301/379/223 299/380/223 297/381/223 295/382/223 293/383/223 291/384/223 289/385/223 287/386/223 285/387/223 283/388/223 281/389/223 279/390/223 277/391/223 275/392/223 273/393/223 271/394/223 269/395/223 267/396/223 265/397/223 263/398/223 261/399/223 259/400/223 257/401/223 255/402/223 253/403/223 251/404/223 249/405/223
f 304/373/224 305/372/224 307/406/224 306/407/224
f 306/407/225 307/406/225 245/408/225 244/409/225
f 244/410/226 246/411/226 248/412/226 250/413/226 252/414/226 254/415/226 256/416/226 258/417/226 260/418/226 262/419/226 264/420/226 266/421/226 268/422/226 270/423/226 272/424/226 274/425/226 276/426/226 278/427/226 280/428/226 282/429/226 284/430/226 286/431/226 288/432/226 290/433/226 292/434/226 294/435/226 296/436/226 298/437/226 300/438/226 302/439/226 304/440/226 306/441/226
f 308/312/227 309/313/227 311/314/227 310/315/227
f 310/315/228 311/314/228 313/316/228 312/317/228
f 312/317/229 313/316/229 315/318/229 314/319/229
f 314/319/230 315/318/230 317/320/230 316/321/230
f 316/321/231 317/320/231 319/322/231 318/323/231
f 318/323/232 319/322/232 321/324/232 320/325/232
f 320/325/233 321/324/233 323/326/233 322/327/233
f 322/327/234 323/326/234 325/328/234 324/329/234
f 324/329/235 325/328/235 327/330/235 326/331/235
f 326/331/236 327/330/236 329/332/236 328/333/236
f 328/333/237 329/332/237 331/334/237 330/335/237
f 330/335/238 331/334/238 333/336/238 332/337/238
f 332/337/239 333/336/239 335/338/239 334/339/239
f 334/339/240 335/338/240 337/340/240 336/341/240
f 336/341/241 337/340/241 339/342/241 338/343/241
f 338/343/242 339/342/242 341/344/242 340/345/242
f 340/345/243 341/344/243 343/346/243 342/347/243
f 342/347/244 343/346/244 345/348/244 344/349/244
f 344/349/245 345/348/245 347/350/245 346/351/245
f 346/351/246 347/350/246 349/352/246 348/353/246
f 348/353/247 349/352/247 351/354/247 350/355/247
f 350/355/248 351/354/248 353/356/248 352/357/248
f 352/357/249 353/356/249 355/358/249 354/359/249
f 354/359/250 355/358/250 357/360/250 356/361/250
f 356/361/251 357/360/251 359/362/251 358/363/251
f 358/363/252 359/362/252 361/364/252 360/365/252
f 360/365/253 361/364/253 363/366/253 362/367/253
f 362/367/254 363/366/254 365/368/254 364/369/254
f 364/369/255 365/368/255 367/370/255 366/371/255
f 366/371/256 367/370/256 369/372/256 368/373/256
f 311/374/257 309/375/257 371/376/257 369/377/257 367/378/257 365/379/257 363/380/257 361/381/257 359/382/257 357/383/257 355/384/257 353/385/257 351/386/257 349/387/257 347/388/257 345/389/257 343/390/257 341/391/257 339/392/257 337/393/257 335/394/257 333/395/257 331/396/257 329/397/257 327/398/257 325/399/257 323/400/257 321/401/257 319/402/257 317/403/257 315/404/257 313/405/257
f 368/373/258 369/372/258 371/406/258 370/407/258
f 370/407/259 371/406/259 309/408/259 308/409/259
f 308/410/260 310/411/260 312/412/260 314/413/260 316/414/260 318/415/260 320/416/260 322/417/260 324/418/260 326/419/260 328/420/260 330/421/260 332/422/260 334/423/260 336/424/260 338/425/260 340/426/260 342/427/260 344/428/260 346/429/260 348/430/260 350/431/260 352/432/260 354/433/260 356/434/260 358/435/260 360/436/260 362/437/260 364/438/260 366/439/260 368/440/260 370/441/260
