# Blender 5.2.1 LTS
# www.blender.org
mtllib lightning_collider__b.mtl
o Cube
v -0.359594 0.087530 0.362532
v -0.359594 0.087530 -1.233568
v 0.359591 0.087530 0.362532
v 0.359591 0.087530 -1.233568
v -0.303130 -0.291583 0.306067
v -0.359594 -0.235118 0.362532
v -0.320578 -0.288819 0.323516
v -0.336319 -0.280799 0.339256
v -0.348811 -0.268307 0.351748
v -0.356831 -0.252566 0.359768
v -0.303130 -0.291583 -1.177104
v -0.359594 -0.235118 -1.233568
v -0.320578 -0.288819 -1.194552
v -0.336319 -0.280799 -1.210293
v -0.348811 -0.268307 -1.222785
v -0.356831 -0.252566 -1.230805
v 0.303126 -0.291583 0.306067
v 0.359591 -0.235118 0.362532
v 0.320574 -0.288819 0.323516
v 0.336315 -0.280799 0.339256
v 0.348807 -0.268307 0.351748
v 0.356827 -0.252566 0.359768
v 0.303126 -0.291583 -1.177104
v 0.359591 -0.235118 -1.233568
v 0.320574 -0.288819 -1.194552
v 0.336315 -0.280799 -1.210293
v 0.348807 -0.268307 -1.222785
v 0.356827 -0.252566 -1.230805
vn -0.0000 1.0000 -0.0000
vn -0.1564 -0.9877 -0.0000
vn -0.4540 -0.8910 -0.0000
vn -0.7071 -0.7071 -0.0000
vn -0.8910 -0.4540 -0.0000
vn -0.9877 -0.1564 -0.0000
vn -0.0000 -0.9877 -0.1564
vn -0.0000 -0.8910 -0.4540
vn -0.0000 -0.7071 -0.7071
vn -0.0000 -0.4540 -0.8910
vn -0.0000 -0.1564 -0.9877
vn 0.1564 -0.9877 -0.0000
vn 0.4540 -0.8910 -0.0000
vn 0.7071 -0.7071 -0.0000
vn 0.8910 -0.4540 -0.0000
vn 0.9877 -0.1564 -0.0000
vn -0.0000 -0.9877 0.1564
vn -0.0000 -0.8910 0.4540
vn -0.0000 -0.7071 0.7071
vn -0.0000 -0.4540 0.8910
vn -0.0000 -0.1564 0.9877
vn -0.0000 -1.0000 -0.0000
vn -1.0000 -0.0000 -0.0000
vn -0.0000 -0.0000 1.0000
vn -0.0000 -0.0000 -1.0000
vn 1.0000 -0.0000 -0.0000
vt 0.625000 0.500000
vt 0.875000 0.500000
vt 0.875000 0.750000
vt 0.625000 0.750000
vt 0.144628 0.508844
vt 0.144628 0.741156
vt 0.138563 0.743889
vt 0.138563 0.506111
vt 0.133091 0.746354
vt 0.133091 0.503646
vt 0.126874 0.749156
vt 0.126874 0.500845
vt 0.375000 0.251030
vt 0.375000 0.001689
vt 0.400729 0.000433
vt 0.400729 0.250264
vt 0.412235 0.000000
vt 0.412235 0.250000
vt 0.355372 0.508844
vt 0.361437 0.506111
vt 0.366909 0.503646
vt 0.381737 0.499907
vt 0.400729 0.499736
vt 0.412235 0.500000
vt 0.355372 0.741156
vt 0.361437 0.743889
vt 0.366909 0.746354
vt 0.381737 0.750093
vt 0.400729 0.750264
vt 0.412235 0.750000
vt 0.375000 0.996251
vt 0.400729 0.999039
vt 0.412235 1.000000
vt 0.625000 0.000000
vt 0.625000 0.250000
vt 0.625000 1.000000
s 0
f 4/1/1 2/2/1 1/3/1 3/4/1
f 11/5/2 5/6/2 7/7/2 13/8/2
f 13/8/3 7/7/3 8/9/3 14/10/3
f 14/10/4 8/9/4 9/11/4 15/12/4
f 15/13/5 9/14/5 10/15/5 16/16/5
f 16/16/6 10/15/6 6/17/6 12/18/6
f 23/19/7 11/5/7 13/8/7 25/20/7
f 25/20/8 13/8/8 14/10/8 26/21/8
f 26/21/9 14/10/9 15/12/9 27/22/9
f 27/22/10 15/13/10 16/16/10 28/23/10
f 28/23/11 16/16/11 12/18/11 24/24/11
f 17/25/12 23/19/12 25/20/12 19/26/12
f 19/26/13 25/20/13 26/21/13 20/27/13
f 20/27/14 26/21/14 27/22/14 21/28/14
f 21/28/15 27/22/15 28/23/15 22/29/15
f 22/29/16 28/23/16 24/24/16 18/30/16
f 5/6/17 17/25/17 19/26/17 7/7/17
f 7/7/18 19/26/18 20/27/18 8/9/18
f 8/9/19 20/27/19 21/28/19 9/11/19
f 9/31/20 21/28/20 22/29/20 10/32/20
f 10/32/21 22/29/21 18/30/21 6/33/21
f 11/5/22 23/19/22 17/25/22 5/6/22
f 6/17/23 1/34/23 2/35/23 12/18/23
f 18/30/24 3/4/24 1/36/24 6/33/24
f 12/18/25 2/35/25 4/1/25 24/24/25
f 24/24/26 4/1/26 3/4/26 18/30/26
