# Blender 5.2.0 LTS
# www.blender.org
mtllib missile_bighead.mtl
o Cylinder
v -0.000000 -0.022909 0.120901
v 0.013555 -0.020287 0.014390
v 0.004469 -0.022469 0.120901
v 0.016384 -0.024520 -0.015174
v 0.008767 -0.021165 0.120901
v 0.016384 -0.024520 -0.042389
v 0.012728 -0.019048 0.120901
v 0.016384 -0.024520 -0.069604
v 0.016199 -0.016199 0.120901
v 0.011285 -0.027245 0.093686
v 0.019048 -0.012728 0.120901
v 0.008647 -0.020876 0.066471
v 0.021165 -0.008767 0.120901
v 0.008735 -0.021088 0.036907
v 0.022469 -0.004469 0.120901
v 0.009337 -0.022541 0.014390
v 0.022909 -0.000000 0.120901
v 0.011285 -0.027245 -0.015174
v 0.022469 0.004469 0.120901
v 0.011285 -0.027245 -0.042389
v 0.021165 0.008767 0.120901
v 0.011285 -0.027245 -0.069604
v 0.019048 0.012728 0.120901
v -0.005753 -0.028923 -0.069604
v 0.016199 0.016199 0.120901
v -0.005753 -0.028923 -0.042389
v 0.012728 0.019048 0.120901
v -0.005753 -0.028923 -0.015174
v 0.008767 0.021165 0.120901
v -0.004760 -0.023930 0.014390
v 0.004469 0.022469 0.120901
v -0.004453 -0.022387 0.036907
v -0.000000 0.022909 0.120901
v -0.004408 -0.022162 0.066471
v -0.004469 0.022469 0.120901
v -0.005753 -0.028923 0.093686
v -0.008767 0.021165 0.120901
v 0.005753 -0.028923 0.093686
v -0.012728 0.019048 0.120901
v 0.004408 -0.022162 0.066471
v -0.016199 0.016199 0.120901
v 0.004453 -0.022387 0.036907
v -0.019048 0.012728 0.120901
v 0.004760 -0.023930 0.014390
v -0.021165 0.008767 0.120901
v 0.005753 -0.028923 -0.015174
v -0.022469 0.004469 0.120901
v 0.005753 -0.028923 -0.042389
v -0.022909 -0.000000 0.120901
v 0.005753 -0.028923 -0.069604
v -0.022469 -0.004469 0.120901
v 0.000000 -0.029490 -0.069604
v -0.021165 -0.008767 0.120901
v 0.000000 -0.029490 -0.042389
v -0.019048 -0.012728 0.120901
v 0.000000 -0.029490 -0.015174
v -0.016199 -0.016199 0.120901
v -0.000000 -0.024399 0.014390
v -0.012728 -0.019048 0.120901
v 0.000000 -0.022825 0.036907
v -0.008767 -0.021165 0.120901
v -0.000000 -0.022596 0.066471
v -0.004469 -0.022469 0.120901
v 0.000000 -0.029490 0.093686
v 0.000000 -0.005291 -0.139343
v -0.000000 -0.028088 -0.097452
v 0.000000 -0.012769 -0.135845
v -0.000000 -0.019155 -0.127353
v -0.000000 -0.023146 -0.117657
v -0.000000 -0.025729 -0.110147
v 0.001032 -0.005189 -0.139343
v 0.005480 -0.027548 -0.097452
v 0.002491 -0.012524 -0.135845
v 0.003737 -0.018787 -0.127353
v 0.004516 -0.022701 -0.117657
v 0.005020 -0.025235 -0.110147
v 0.002025 -0.004888 -0.139343
v 0.010749 -0.025950 -0.097452
v 0.004886 -0.011797 -0.135845
v 0.007330 -0.017697 -0.127353
v 0.008858 -0.021384 -0.117657
v 0.009846 -0.023771 -0.110147
v 0.002940 -0.004399 -0.139343
v 0.015605 -0.023354 -0.097452
v 0.007094 -0.010617 -0.135845
v 0.010642 -0.015927 -0.127353
v 0.012859 -0.019245 -0.117657
v 0.014294 -0.021393 -0.110147
v 0.003741 -0.003741 -0.139343
v 0.019861 -0.019861 -0.097452
v 0.009029 -0.009029 -0.135845
v 0.013545 -0.013545 -0.127353
v 0.016367 -0.016367 -0.117657
v 0.018193 -0.018193 -0.110147
v 0.004399 -0.002940 -0.139343
v 0.023354 -0.015605 -0.097452
v 0.010617 -0.007094 -0.135845
v 0.015927 -0.010642 -0.127353
v 0.019245 -0.012859 -0.117657
v 0.021393 -0.014294 -0.110147
v 0.004888 -0.002025 -0.139343
v 0.025950 -0.010749 -0.097452
v 0.011797 -0.004886 -0.135845
v 0.017697 -0.007330 -0.127353
v 0.021384 -0.008858 -0.117657
v 0.023771 -0.009846 -0.110147
v 0.005189 -0.001032 -0.139343
v 0.027548 -0.005480 -0.097452
v 0.012524 -0.002491 -0.135845
v 0.018787 -0.003737 -0.127353
v 0.022701 -0.004516 -0.117657
v 0.025235 -0.005020 -0.110147
v 0.005291 0.000000 -0.139343
v 0.028088 0.000000 -0.097452
v 0.012769 0.000000 -0.135845
v 0.019155 0.000000 -0.127353
v 0.023146 0.000000 -0.117657
v 0.025729 0.000000 -0.110147
v 0.005189 0.001032 -0.139343
v 0.027548 0.005480 -0.097452
v 0.012524 0.002491 -0.135845
v 0.018787 0.003737 -0.127353
v 0.022701 0.004516 -0.117657
v 0.025235 0.005020 -0.110147
v 0.004888 0.002025 -0.139343
v 0.025950 0.010749 -0.097452
v 0.011797 0.004886 -0.135845
v 0.017697 0.007330 -0.127353
v 0.021384 0.008858 -0.117657
v 0.023771 0.009846 -0.110147
v 0.004399 0.002940 -0.139343
v 0.023354 0.015605 -0.097452
v 0.010617 0.007094 -0.135845
v 0.015927 0.010642 -0.127353
v 0.019245 0.012859 -0.117657
v 0.021393 0.014294 -0.110147
v 0.003741 0.003741 -0.139343
v 0.019861 0.019861 -0.097452
v 0.009029 0.009029 -0.135845
v 0.013545 0.013545 -0.127353
v 0.016367 0.016367 -0.117657
v 0.018193 0.018193 -0.110147
v 0.002940 0.004399 -0.139343
v 0.015605 0.023354 -0.097452
v 0.007094 0.010617 -0.135845
v 0.010642 0.015927 -0.127353
v 0.012859 0.019245 -0.117657
v 0.014294 0.021393 -0.110147
v 0.002025 0.004888 -0.139343
v 0.010749 0.025950 -0.097452
v 0.004886 0.011797 -0.135845
v 0.007330 0.017697 -0.127353
v 0.008858 0.021384 -0.117657
v 0.009846 0.023771 -0.110147
v 0.001032 0.005189 -0.139343
v 0.005480 0.027548 -0.097452
v 0.002491 0.012524 -0.135845
v 0.003737 0.018787 -0.127353
v 0.004516 0.022701 -0.117657
v 0.005020 0.025235 -0.110147
v 0.000000 0.005291 -0.139343
v -0.000000 0.028088 -0.097452
v 0.000000 0.012769 -0.135845
v -0.000000 0.019156 -0.127353
v -0.000000 0.023146 -0.117657
v -0.000000 0.025729 -0.110147
v -0.001032 0.005189 -0.139343
v -0.005480 0.027548 -0.097452
v -0.002491 0.012524 -0.135845
v -0.003737 0.018787 -0.127353
v -0.004516 0.022701 -0.117657
v -0.005020 0.025235 -0.110147
v -0.002025 0.004888 -0.139343
v -0.010749 0.025950 -0.097452
v -0.004886 0.011797 -0.135845
v -0.007330 0.017697 -0.127353
v -0.008858 0.021384 -0.117657
v -0.009846 0.023771 -0.110147
v -0.002940 0.004399 -0.139343
v -0.015605 0.023354 -0.097452
v -0.007094 0.010617 -0.135845
v -0.010642 0.015927 -0.127353
v -0.012859 0.019245 -0.117657
v -0.014294 0.021393 -0.110147
v -0.003741 0.003741 -0.139343
v -0.019861 0.019861 -0.097452
v -0.009029 0.009029 -0.135845
v -0.013545 0.013545 -0.127353
v -0.016367 0.016367 -0.117657
v -0.018193 0.018193 -0.110147
v -0.004399 0.002940 -0.139343
v -0.023354 0.015605 -0.097452
v -0.010617 0.007094 -0.135845
v -0.015927 0.010642 -0.127353
v -0.019245 0.012859 -0.117657
v -0.021393 0.014294 -0.110147
v -0.004888 0.002025 -0.139343
v -0.025950 0.010749 -0.097452
v -0.011797 0.004886 -0.135845
v -0.017697 0.007330 -0.127353
v -0.021384 0.008858 -0.117657
v -0.023771 0.009846 -0.110147
v -0.005189 0.001032 -0.139343
v -0.027548 0.005480 -0.097452
v -0.012524 0.002491 -0.135845
v -0.018787 0.003737 -0.127353
v -0.022701 0.004516 -0.117657
v -0.025235 0.005020 -0.110147
v -0.005291 0.000000 -0.139343
v -0.028088 0.000000 -0.097452
v -0.012769 0.000000 -0.135845
v -0.019155 0.000000 -0.127353
v -0.023146 0.000000 -0.117657
v -0.025729 0.000000 -0.110147
v -0.005189 -0.001032 -0.139343
v -0.027548 -0.005480 -0.097452
v -0.012524 -0.002491 -0.135845
v -0.018787 -0.003737 -0.127353
v -0.022701 -0.004516 -0.117657
v -0.025235 -0.005020 -0.110147
v -0.004888 -0.002025 -0.139343
v -0.025950 -0.010749 -0.097452
v -0.011797 -0.004886 -0.135845
v -0.017697 -0.007330 -0.127353
v -0.021384 -0.008858 -0.117657
v -0.023771 -0.009846 -0.110147
v -0.004399 -0.002940 -0.139343
v -0.023354 -0.015605 -0.097452
v -0.010617 -0.007094 -0.135845
v -0.015927 -0.010642 -0.127353
v -0.019245 -0.012859 -0.117657
v -0.021393 -0.014294 -0.110147
v -0.003741 -0.003741 -0.139343
v -0.019861 -0.019861 -0.097452
v -0.009029 -0.009029 -0.135845
v -0.013545 -0.013545 -0.127353
v -0.016367 -0.016367 -0.117657
v -0.018193 -0.018193 -0.110147
v -0.002940 -0.004399 -0.139343
v -0.015605 -0.023354 -0.097452
v -0.007094 -0.010617 -0.135845
v -0.010642 -0.015927 -0.127353
v -0.012859 -0.019245 -0.117657
v -0.014294 -0.021393 -0.110147
v -0.002025 -0.004888 -0.139343
v -0.010749 -0.025950 -0.097452
v -0.004886 -0.011797 -0.135845
v -0.007330 -0.017697 -0.127353
v -0.008858 -0.021384 -0.117657
v -0.009846 -0.023771 -0.110147
v -0.001032 -0.005189 -0.139343
v -0.005480 -0.027548 -0.097452
v -0.002491 -0.012524 -0.135845
v -0.003737 -0.018787 -0.127353
v -0.004516 -0.022701 -0.117657
v -0.005020 -0.025235 -0.110147
v 0.012681 -0.018979 0.036907
v 0.012554 -0.018788 0.066471
v 0.016384 -0.024520 0.093686
v 0.020852 -0.020852 -0.069604
v 0.020852 -0.020852 -0.042389
v 0.020852 -0.020852 -0.015174
v 0.017253 -0.017253 0.014390
v 0.016140 -0.016140 0.036907
v 0.015978 -0.015978 0.066471
v 0.020852 -0.020852 0.093686
v 0.024520 -0.016384 -0.069604
v 0.024520 -0.016384 -0.042389
v 0.024520 -0.016384 -0.015174
v 0.020287 -0.013555 0.014390
v 0.018979 -0.012681 0.036907
v 0.018788 -0.012554 0.066471
v 0.024520 -0.016384 0.093686
v 0.027245 -0.011285 -0.069604
v 0.027245 -0.011285 -0.042389
v 0.027245 -0.011285 -0.015174
v 0.022541 -0.009337 0.014390
v 0.021088 -0.008735 0.036907
v 0.020876 -0.008647 0.066471
v 0.027245 -0.011285 0.093686
v 0.028923 -0.005753 -0.069604
v 0.028923 -0.005753 -0.042389
v 0.028923 -0.005753 -0.015174
v 0.023930 -0.004760 0.014390
v 0.022387 -0.004453 0.036907
v 0.022162 -0.004408 0.066471
v 0.028923 -0.005753 0.093686
v 0.029490 0.000000 -0.069604
v 0.029490 0.000000 -0.042389
v 0.029490 0.000000 -0.015174
v 0.024399 -0.000000 0.014390
v 0.022825 -0.000000 0.036907
v 0.022596 -0.000000 0.066471
v 0.029490 -0.000000 0.093686
v 0.028923 0.005753 -0.069604
v 0.028923 0.005753 -0.042389
v 0.028923 0.005753 -0.015174
v 0.023930 0.004760 0.014390
v 0.022387 0.004453 0.036907
v 0.022162 0.004408 0.066471
v 0.028923 0.005753 0.093686
v 0.027245 0.011285 -0.069604
v 0.027245 0.011285 -0.042389
v 0.027245 0.011285 -0.015174
v 0.022541 0.009337 0.014390
v 0.021088 0.008735 0.036907
v 0.020876 0.008647 0.066471
v 0.027245 0.011285 0.093686
v 0.024520 0.016384 -0.069604
v 0.024520 0.016384 -0.042389
v 0.024520 0.016384 -0.015174
v 0.020287 0.013555 0.014390
v 0.018979 0.012681 0.036907
v 0.018788 0.012554 0.066471
v 0.024520 0.016384 0.093686
v 0.020852 0.020852 -0.069604
v 0.020852 0.020852 -0.042389
v 0.020852 0.020852 -0.015174
v 0.017253 0.017253 0.014390
v 0.016140 0.016140 0.036907
v 0.015978 0.015978 0.066471
v 0.020852 0.020852 0.093686
v 0.016384 0.024520 -0.069604
v 0.016384 0.024520 -0.042389
v 0.016384 0.024520 -0.015174
v 0.013555 0.020287 0.014390
v 0.012681 0.018979 0.036907
v 0.012554 0.018788 0.066471
v 0.016384 0.024520 0.093686
v 0.011285 0.027245 -0.069604
v 0.011285 0.027245 -0.042389
v 0.011285 0.027245 -0.015174
v 0.009337 0.022541 0.014390
v 0.008735 0.021088 0.036907
v 0.008647 0.020876 0.066471
v 0.011285 0.027245 0.093686
v 0.005753 0.028923 -0.069604
v 0.005753 0.028923 -0.042389
v 0.005753 0.028923 -0.015174
v 0.004760 0.023930 0.014390
v 0.004453 0.022387 0.036907
v 0.004408 0.022162 0.066471
v 0.005753 0.028923 0.093686
v 0.000000 0.029490 -0.069604
v 0.000000 0.029490 -0.042389
v 0.000000 0.029490 -0.015174
v -0.000000 0.024399 0.014390
v 0.000000 0.022825 0.036907
v -0.000000 0.022596 0.066471
v 0.000000 0.029490 0.093686
v -0.005753 0.028923 -0.069604
v -0.005753 0.028923 -0.042389
v -0.005753 0.028923 -0.015174
v -0.004760 0.023930 0.014390
v -0.004453 0.022387 0.036907
v -0.004408 0.022162 0.066471
v -0.005753 0.028923 0.093686
v -0.011285 0.027245 -0.069604
v -0.011285 0.027245 -0.042389
v -0.011285 0.027245 -0.015174
v -0.009337 0.022541 0.014390
v -0.008735 0.021088 0.036907
v -0.008647 0.020876 0.066471
v -0.011285 0.027245 0.093686
v -0.016384 0.024520 -0.069604
v -0.016384 0.024520 -0.042389
v -0.016384 0.024520 -0.015174
v -0.013555 0.020287 0.014390
v -0.012681 0.018979 0.036907
v -0.012554 0.018788 0.066471
v -0.016384 0.024520 0.093686
v -0.020852 0.020852 -0.069604
v -0.020852 0.020852 -0.042389
v -0.020852 0.020852 -0.015174
v -0.017253 0.017253 0.014390
v -0.016140 0.016140 0.036907
v -0.015978 0.015978 0.066471
v -0.020852 0.020852 0.093686
v -0.024520 0.016384 -0.069604
v -0.024520 0.016384 -0.042389
v -0.024520 0.016384 -0.015174
v -0.020287 0.013555 0.014390
v -0.018979 0.012681 0.036907
v -0.018788 0.012554 0.066471
v -0.024520 0.016384 0.093686
v -0.027245 0.011285 -0.069604
v -0.027245 0.011285 -0.042389
v -0.027245 0.011285 -0.015174
v -0.022541 0.009337 0.014390
v -0.021088 0.008735 0.036907
v -0.020876 0.008647 0.066471
v -0.027245 0.011285 0.093686
v -0.028923 0.005753 -0.069604
v -0.028923 0.005753 -0.042389
v -0.028923 0.005753 -0.015174
v -0.023930 0.004760 0.014390
v -0.022387 0.004453 0.036907
v -0.022162 0.004408 0.066471
v -0.028923 0.005753 0.093686
v -0.029490 0.000000 -0.069604
v -0.029490 0.000000 -0.042389
v -0.029490 0.000000 -0.015174
v -0.024399 -0.000000 0.014390
v -0.022825 -0.000000 0.036907
v -0.022596 -0.000000 0.066471
v -0.029490 -0.000000 0.093686
v -0.028923 -0.005753 -0.069604
v -0.028923 -0.005753 -0.042389
v -0.028923 -0.005753 -0.015174
v -0.023930 -0.004760 0.014390
v -0.022387 -0.004453 0.036907
v -0.022162 -0.004408 0.066471
v -0.028923 -0.005753 0.093686
v -0.027245 -0.011285 -0.069604
v -0.027245 -0.011285 -0.042389
v -0.027245 -0.011285 -0.015174
v -0.022541 -0.009337 0.014390
v -0.021088 -0.008735 0.036907
v -0.020876 -0.008647 0.066471
v -0.027245 -0.011285 0.093686
v -0.024520 -0.016384 -0.069604
v -0.024520 -0.016384 -0.042389
v -0.024520 -0.016384 -0.015174
v -0.020287 -0.013555 0.014390
v -0.018979 -0.012681 0.036907
v -0.018788 -0.012554 0.066471
v -0.024520 -0.016384 0.093686
v -0.020852 -0.020852 -0.069604
v -0.020852 -0.020852 -0.042389
v -0.020852 -0.020852 -0.015174
v -0.017253 -0.017253 0.014390
v -0.016140 -0.016140 0.036907
v -0.015978 -0.015978 0.066471
v -0.020852 -0.020852 0.093686
v -0.016384 -0.024520 -0.069604
v -0.016384 -0.024520 -0.042389
v -0.016384 -0.024520 -0.015174
v -0.013555 -0.020287 0.014390
v -0.012681 -0.018979 0.036907
v -0.012554 -0.018788 0.066471
v -0.016384 -0.024520 0.093686
v -0.011285 -0.027245 -0.069604
v -0.011285 -0.027245 -0.042389
v -0.011285 -0.027245 -0.015174
v -0.009337 -0.022541 0.014390
v -0.008735 -0.021088 0.036907
v -0.008647 -0.020876 0.066471
v -0.011285 -0.027245 0.093686
vn -0.3827 -0.9239 -0.0053
vn -0.3799 -0.9171 -0.1208
vn -0.1937 -0.9736 -0.1208
vn -0.1951 -0.9808 -0.0053
vn -0.3720 -0.8980 0.2350
vn -0.1896 -0.9533 0.2350
vn -0.9172 -0.3799 0.1202
vn -0.9206 -0.3813 0.0847
vn -0.8285 -0.5536 0.0847
vn -0.8254 -0.5515 0.1202
vn -0.9232 -0.3824 0.0388
vn -0.8308 -0.5552 0.0388
vn -0.9171 -0.3799 -0.1208
vn -0.8254 -0.5515 -0.1208
vn -0.9239 -0.3827 -0.0053
vn -0.8315 -0.5556 -0.0053
vn -0.8980 -0.3720 0.2350
vn -0.8082 -0.5400 0.2350
vn -0.8315 -0.5556 -0.0000
vn -0.8312 -0.5554 -0.0251
vn -0.7069 -0.7069 -0.0251
vn -0.7071 -0.7071 -0.0000
vn -0.7046 -0.7046 0.0847
vn -0.7020 -0.7020 0.1202
vn -0.7066 -0.7066 0.0388
vn -0.7019 -0.7019 -0.1208
vn -0.7071 -0.7071 -0.0053
vn -0.6873 -0.6873 0.2350
vn -0.5554 -0.8312 -0.0251
vn -0.5556 -0.8315 -0.0000
vn -0.5536 -0.8285 0.0847
vn -0.5515 -0.8254 0.1202
vn -0.5552 -0.8308 0.0388
vn -0.5515 -0.8254 -0.1208
vn -0.5556 -0.8315 -0.0053
vn -0.5400 -0.8082 0.2350
vn -0.3826 -0.9236 -0.0251
vn -0.3827 -0.9239 -0.0000
vn -0.3813 -0.9206 0.0847
vn -0.3799 -0.9172 0.1202
vn -0.3824 -0.9232 0.0388
vn -0.1950 -0.9805 -0.0251
vn -0.1951 -0.9808 -0.0000
vn -0.1944 -0.9773 0.0847
vn -0.1937 -0.9737 0.1202
vn -0.1949 -0.9800 0.0388
vn -0.0000 -0.0000 1.0000
vn 0.1938 -0.9741 -0.1163
vn -0.0000 -0.9932 -0.1163
vn -0.0000 -0.9673 -0.2535
vn 0.1887 -0.9487 -0.2535
vn -0.0000 -0.9358 -0.3525
vn 0.1826 -0.9178 -0.3525
vn -0.0000 -0.8709 -0.4914
vn 0.1699 -0.8542 -0.4914
vn -0.0000 -0.6391 -0.7692
vn 0.1247 -0.6268 -0.7692
vn -0.0000 -0.2298 -0.9732
vn 0.0448 -0.2254 -0.9732
vn 0.3801 -0.9176 -0.1163
vn 0.3702 -0.8937 -0.2535
vn 0.3581 -0.8646 -0.3525
vn 0.3333 -0.8046 -0.4914
vn 0.2446 -0.5904 -0.7692
vn 0.0880 -0.2123 -0.9732
vn 0.5518 -0.8258 -0.1163
vn 0.5374 -0.8043 -0.2535
vn 0.5199 -0.7781 -0.3525
vn 0.4839 -0.7241 -0.4914
vn 0.3550 -0.5314 -0.7692
vn 0.1277 -0.1911 -0.9732
vn 0.7023 -0.7023 -0.1163
vn 0.6840 -0.6840 -0.2535
vn 0.6617 -0.6617 -0.3525
vn 0.6158 -0.6158 -0.4914
vn 0.4519 -0.4519 -0.7692
vn 0.1625 -0.1625 -0.9732
vn 0.8258 -0.5518 -0.1163
vn 0.8043 -0.5374 -0.2535
vn 0.7781 -0.5199 -0.3525
vn 0.7241 -0.4839 -0.4914
vn 0.5314 -0.3550 -0.7692
vn 0.1911 -0.1277 -0.9732
vn 0.9176 -0.3801 -0.1163
vn 0.8937 -0.3702 -0.2535
vn 0.8646 -0.3581 -0.3525
vn 0.8046 -0.3333 -0.4914
vn 0.5904 -0.2446 -0.7692
vn 0.2123 -0.0880 -0.9732
vn 0.9741 -0.1938 -0.1163
vn 0.9487 -0.1887 -0.2535
vn 0.9178 -0.1826 -0.3525
vn 0.8542 -0.1699 -0.4914
vn 0.6268 -0.1247 -0.7692
vn 0.2254 -0.0448 -0.9732
vn 0.9932 -0.0000 -0.1163
vn 0.9673 -0.0000 -0.2535
vn 0.9358 -0.0000 -0.3525
vn 0.8709 -0.0000 -0.4914
vn 0.6391 -0.0000 -0.7692
vn 0.2298 -0.0000 -0.9732
vn 0.9741 0.1938 -0.1163
vn 0.9487 0.1887 -0.2535
vn 0.9178 0.1826 -0.3525
vn 0.8542 0.1699 -0.4914
vn 0.6268 0.1247 -0.7692
vn 0.2254 0.0448 -0.9732
vn 0.9176 0.3801 -0.1163
vn 0.8937 0.3702 -0.2535
vn 0.8646 0.3581 -0.3525
vn 0.8046 0.3333 -0.4914
vn 0.5904 0.2446 -0.7692
vn 0.2123 0.0880 -0.9732
vn 0.8258 0.5518 -0.1163
vn 0.8043 0.5374 -0.2535
vn 0.7781 0.5199 -0.3525
vn 0.7241 0.4839 -0.4914
vn 0.5314 0.3550 -0.7692
vn 0.1911 0.1277 -0.9732
vn 0.7023 0.7023 -0.1163
vn 0.6840 0.6840 -0.2535
vn 0.6617 0.6617 -0.3525
vn 0.6158 0.6158 -0.4914
vn 0.4519 0.4519 -0.7692
vn 0.1625 0.1625 -0.9732
vn 0.5518 0.8258 -0.1163
vn 0.5374 0.8043 -0.2535
vn 0.5199 0.7781 -0.3525
vn 0.4839 0.7241 -0.4914
vn 0.3550 0.5314 -0.7692
vn 0.1277 0.1911 -0.9732
vn 0.3801 0.9176 -0.1163
vn 0.3702 0.8937 -0.2535
vn 0.3581 0.8646 -0.3525
vn 0.3333 0.8046 -0.4914
vn 0.2446 0.5904 -0.7692
vn 0.0880 0.2123 -0.9732
vn 0.1938 0.9741 -0.1163
vn 0.1887 0.9487 -0.2535
vn 0.1826 0.9178 -0.3525
vn 0.1699 0.8542 -0.4914
vn 0.1247 0.6268 -0.7692
vn 0.0448 0.2254 -0.9732
vn -0.0000 0.9932 -0.1163
vn -0.0000 0.9673 -0.2535
vn -0.0000 0.9358 -0.3525
vn -0.0000 0.8709 -0.4914
vn -0.0000 0.6391 -0.7692
vn -0.0000 0.2298 -0.9732
vn -0.1938 0.9741 -0.1163
vn -0.1887 0.9487 -0.2535
vn -0.1826 0.9178 -0.3525
vn -0.1699 0.8542 -0.4914
vn -0.1247 0.6268 -0.7692
vn -0.0448 0.2254 -0.9732
vn -0.3801 0.9176 -0.1163
vn -0.3702 0.8937 -0.2535
vn -0.3581 0.8646 -0.3525
vn -0.3333 0.8046 -0.4914
vn -0.2446 0.5904 -0.7692
vn -0.0880 0.2123 -0.9732
vn -0.5518 0.8258 -0.1163
vn -0.5374 0.8043 -0.2535
vn -0.5199 0.7781 -0.3525
vn -0.4839 0.7241 -0.4914
vn -0.3550 0.5314 -0.7692
vn -0.1277 0.1911 -0.9732
vn -0.7023 0.7023 -0.1163
vn -0.6840 0.6840 -0.2535
vn -0.6617 0.6617 -0.3525
vn -0.6158 0.6158 -0.4914
vn -0.4519 0.4519 -0.7692
vn -0.1625 0.1625 -0.9732
vn -0.8258 0.5518 -0.1163
vn -0.8043 0.5374 -0.2535
vn -0.7781 0.5199 -0.3525
vn -0.7241 0.4839 -0.4914
vn -0.5314 0.3550 -0.7692
vn -0.1911 0.1277 -0.9732
vn -0.9176 0.3801 -0.1163
vn -0.8937 0.3702 -0.2535
vn -0.8646 0.3581 -0.3525
vn -0.8046 0.3333 -0.4914
vn -0.5904 0.2446 -0.7692
vn -0.2123 0.0880 -0.9732
vn -0.9741 0.1938 -0.1163
vn -0.9487 0.1887 -0.2535
vn -0.9178 0.1826 -0.3525
vn -0.8542 0.1699 -0.4914
vn -0.6268 0.1247 -0.7692
vn -0.2254 0.0448 -0.9732
vn -0.9932 -0.0000 -0.1163
vn -0.9673 -0.0000 -0.2535
vn -0.9358 -0.0000 -0.3525
vn -0.8709 -0.0000 -0.4914
vn -0.6391 -0.0000 -0.7692
vn -0.2298 -0.0000 -0.9732
vn -0.9741 -0.1938 -0.1163
vn -0.9487 -0.1887 -0.2535
vn -0.9178 -0.1826 -0.3525
vn -0.8542 -0.1699 -0.4914
vn -0.6268 -0.1247 -0.7692
vn -0.2254 -0.0448 -0.9732
vn -0.9176 -0.3801 -0.1163
vn -0.8937 -0.3702 -0.2535
vn -0.8646 -0.3581 -0.3525
vn -0.8046 -0.3333 -0.4914
vn -0.5904 -0.2446 -0.7692
vn -0.2123 -0.0880 -0.9732
vn -0.8258 -0.5518 -0.1163
vn -0.8043 -0.5374 -0.2535
vn -0.7781 -0.5199 -0.3525
vn -0.7241 -0.4839 -0.4914
vn -0.5314 -0.3550 -0.7692
vn -0.1911 -0.1277 -0.9732
vn -0.7023 -0.7023 -0.1163
vn -0.6840 -0.6840 -0.2535
vn -0.6617 -0.6617 -0.3525
vn -0.6158 -0.6158 -0.4914
vn -0.4519 -0.4519 -0.7692
vn -0.1625 -0.1625 -0.9732
vn -0.5518 -0.8258 -0.1163
vn -0.5374 -0.8043 -0.2535
vn -0.5199 -0.7781 -0.3525
vn -0.4839 -0.7241 -0.4914
vn -0.3550 -0.5314 -0.7692
vn -0.1277 -0.1911 -0.9732
vn -0.3801 -0.9176 -0.1163
vn -0.3702 -0.8937 -0.2535
vn -0.3581 -0.8646 -0.3525
vn -0.3333 -0.8046 -0.4914
vn -0.2446 -0.5904 -0.7692
vn -0.0880 -0.2123 -0.9732
vn -0.1938 -0.9741 -0.1163
vn -0.1887 -0.9487 -0.2535
vn -0.1826 -0.9178 -0.3525
vn -0.1699 -0.8542 -0.4914
vn -0.1247 -0.6268 -0.7692
vn -0.0448 -0.2254 -0.9732
vn -0.0000 -0.9997 -0.0251
vn 0.1950 -0.9805 -0.0251
vn 0.3826 -0.9236 -0.0251
vn 0.5554 -0.8312 -0.0251
vn 0.7069 -0.7069 -0.0251
vn 0.8312 -0.5554 -0.0251
vn 0.9236 -0.3826 -0.0251
vn 0.9805 -0.1950 -0.0251
vn 0.9997 -0.0000 -0.0251
vn 0.9805 0.1950 -0.0251
vn 0.9236 0.3826 -0.0251
vn 0.8312 0.5554 -0.0251
vn 0.7069 0.7069 -0.0251
vn 0.5554 0.8312 -0.0251
vn 0.3826 0.9236 -0.0251
vn 0.1950 0.9805 -0.0251
vn -0.0000 0.9997 -0.0251
vn -0.1950 0.9805 -0.0251
vn -0.3826 0.9236 -0.0251
vn -0.5554 0.8312 -0.0251
vn -0.7069 0.7069 -0.0251
vn -0.8312 0.5554 -0.0251
vn -0.9236 0.3826 -0.0251
vn -0.9805 0.1950 -0.0251
vn -0.9997 -0.0000 -0.0251
vn -0.9805 -0.1950 -0.0251
vn -0.9236 -0.3826 -0.0251
vn -0.9239 -0.3827 -0.0000
vn -0.9533 -0.1896 0.2350
vn -0.9808 -0.1951 -0.0053
vn -0.9736 -0.1937 -0.1208
vn -0.9800 -0.1949 0.0388
vn -0.9737 -0.1937 0.1202
vn -0.9773 -0.1944 0.0847
vn -0.9808 -0.1951 -0.0000
vn -0.9720 -0.0000 0.2350
vn -1.0000 -0.0000 -0.0053
vn -0.9927 -0.0000 -0.1208
vn -0.9992 -0.0000 0.0388
vn -0.9927 -0.0000 0.1202
vn -0.9964 -0.0000 0.0847
vn -1.0000 -0.0000 -0.0000
vn -0.9533 0.1896 0.2350
vn -0.9808 0.1951 -0.0053
vn -0.9736 0.1937 -0.1208
vn -0.9800 0.1949 0.0388
vn -0.9737 0.1937 0.1202
vn -0.9773 0.1944 0.0847
vn -0.9808 0.1951 -0.0000
vn -0.8980 0.3720 0.2350
vn -0.9239 0.3827 -0.0053
vn -0.9171 0.3799 -0.1208
vn -0.9232 0.3824 0.0388
vn -0.9172 0.3799 0.1202
vn -0.9206 0.3813 0.0847
vn -0.9239 0.3827 -0.0000
vn -0.8082 0.5400 0.2350
vn -0.8315 0.5556 -0.0053
vn -0.8254 0.5515 -0.1208
vn -0.8308 0.5552 0.0388
vn -0.8254 0.5515 0.1202
vn -0.8285 0.5536 0.0847
vn -0.8315 0.5556 -0.0000
vn -0.6873 0.6873 0.2350
vn -0.7071 0.7071 -0.0053
vn -0.7019 0.7019 -0.1208
vn -0.7066 0.7066 0.0388
vn -0.7020 0.7020 0.1202
vn -0.7046 0.7046 0.0847
vn -0.7071 0.7071 -0.0000
vn -0.5400 0.8082 0.2350
vn -0.5556 0.8315 -0.0053
vn -0.5515 0.8254 -0.1208
vn -0.5552 0.8308 0.0388
vn -0.5515 0.8254 0.1202
vn -0.5536 0.8285 0.0847
vn -0.5556 0.8315 -0.0000
vn -0.3720 0.8980 0.2350
vn -0.3827 0.9239 -0.0053
vn -0.3799 0.9171 -0.1208
vn -0.3824 0.9232 0.0388
vn -0.3799 0.9172 0.1202
vn -0.3813 0.9206 0.0847
vn -0.3827 0.9239 -0.0000
vn -0.1896 0.9533 0.2350
vn -0.1951 0.9808 -0.0053
vn -0.1937 0.9736 -0.1208
vn -0.1949 0.9800 0.0388
vn -0.1937 0.9737 0.1202
vn -0.1944 0.9773 0.0847
vn -0.1951 0.9808 -0.0000
vn -0.0000 0.9720 0.2350
vn -0.0000 1.0000 -0.0053
vn -0.0000 0.9927 -0.1208
vn -0.0000 0.9992 0.0388
vn -0.0000 0.9927 0.1202
vn -0.0000 0.9964 0.0847
vn -0.0000 1.0000 -0.0000
vn 0.1896 0.9533 0.2350
vn 0.1951 0.9808 -0.0053
vn 0.1937 0.9736 -0.1208
vn 0.1949 0.9800 0.0388
vn 0.1937 0.9737 0.1202
vn 0.1944 0.9773 0.0847
vn 0.1951 0.9808 -0.0000
vn 0.3720 0.8980 0.2350
vn 0.3827 0.9239 -0.0053
vn 0.3799 0.9171 -0.1208
vn 0.3824 0.9232 0.0388
vn 0.3799 0.9172 0.1202
vn 0.3813 0.9206 0.0847
vn 0.3827 0.9239 -0.0000
vn 0.5400 0.8082 0.2350
vn 0.5556 0.8315 -0.0053
vn 0.5515 0.8254 -0.1208
vn 0.5552 0.8308 0.0388
vn 0.5515 0.8254 0.1202
vn 0.5536 0.8285 0.0847
vn 0.5556 0.8315 -0.0000
vn 0.6873 0.6873 0.2350
vn 0.7071 0.7071 -0.0053
vn 0.7019 0.7019 -0.1208
vn 0.7066 0.7066 0.0388
vn 0.7020 0.7020 0.1202
vn 0.7046 0.7046 0.0847
vn 0.7071 0.7071 -0.0000
vn 0.8082 0.5400 0.2350
vn 0.8315 0.5556 -0.0053
vn 0.8254 0.5515 -0.1208
vn 0.8308 0.5552 0.0388
vn 0.8254 0.5515 0.1202
vn 0.8285 0.5536 0.0847
vn 0.8315 0.5556 -0.0000
vn 0.8980 0.3720 0.2350
vn 0.9239 0.3827 -0.0053
vn 0.9171 0.3799 -0.1208
vn 0.9232 0.3824 0.0388
vn 0.9172 0.3799 0.1202
vn 0.9206 0.3813 0.0847
vn 0.9239 0.3827 -0.0000
vn 0.9533 0.1896 0.2350
vn 0.9808 0.1951 -0.0053
vn 0.9736 0.1937 -0.1208
vn 0.9800 0.1949 0.0388
vn 0.9737 0.1937 0.1202
vn 0.9773 0.1944 0.0847
vn 0.9808 0.1951 -0.0000
vn 0.9720 -0.0000 0.2350
vn 1.0000 -0.0000 -0.0053
vn 0.9927 -0.0000 -0.1208
vn 0.9992 -0.0000 0.0388
vn 0.9927 -0.0000 0.1202
vn 0.9964 -0.0000 0.0847
vn 1.0000 -0.0000 -0.0000
vn 0.9533 -0.1896 0.2350
vn 0.9808 -0.1951 -0.0053
vn 0.9736 -0.1937 -0.1208
vn 0.9800 -0.1949 0.0388
vn 0.9737 -0.1937 0.1202
vn 0.9773 -0.1944 0.0847
vn 0.9808 -0.1951 -0.0000
vn 0.8980 -0.3720 0.2350
vn 0.9239 -0.3827 -0.0053
vn 0.9171 -0.3799 -0.1208
vn 0.9232 -0.3824 0.0388
vn 0.9172 -0.3799 0.1202
vn 0.9206 -0.3813 0.0847
vn 0.9239 -0.3827 -0.0000
vn 0.8082 -0.5400 0.2350
vn 0.8315 -0.5556 -0.0053
vn 0.8254 -0.5515 -0.1208
vn 0.8308 -0.5552 0.0388
vn 0.8254 -0.5515 0.1202
vn 0.8285 -0.5536 0.0847
vn 0.8315 -0.5556 -0.0000
vn 0.6873 -0.6873 0.2350
vn 0.7071 -0.7071 -0.0053
vn 0.7019 -0.7019 -0.1208
vn 0.7066 -0.7066 0.0388
vn 0.7020 -0.7020 0.1202
vn 0.7046 -0.7046 0.0847
vn 0.7071 -0.7071 -0.0000
vn 0.5400 -0.8082 0.2350
vn 0.5556 -0.8315 -0.0053
vn 0.5515 -0.8254 -0.1208
vn 0.5552 -0.8308 0.0388
vn 0.5515 -0.8254 0.1202
vn 0.5536 -0.8285 0.0847
vn 0.5556 -0.8315 -0.0000
vn 0.3720 -0.8980 0.2350
vn 0.3827 -0.9239 -0.0053
vn 0.3799 -0.9171 -0.1208
vn 0.3824 -0.9232 0.0388
vn 0.3799 -0.9172 0.1202
vn 0.3813 -0.9206 0.0847
vn 0.3827 -0.9239 -0.0000
vn 0.1896 -0.9533 0.2350
vn 0.1951 -0.9808 -0.0053
vn 0.1937 -0.9736 -0.1208
vn 0.1949 -0.9800 0.0388
vn 0.1937 -0.9737 0.1202
vn 0.1944 -0.9773 0.0847
vn 0.1951 -0.9808 -0.0000
vn -0.0000 -1.0000 -0.0053
vn -0.0000 -0.9720 0.2350
vn -0.0000 -0.9927 -0.1208
vn -0.0000 -0.9992 0.0388
vn -0.0000 -0.9927 0.1202
vn -0.0000 -0.9964 0.0847
vn -0.0000 -1.0000 -0.0000
vt 0.575603 0.056227
vt 0.575603 0.079712
vt 0.563028 0.079712
vt 0.563028 0.056227
vt 0.081690 0.923558
vt 0.081690 0.946718
vt 0.069289 0.946718
vt 0.069289 0.923558
vt 0.625902 0.126682
vt 0.625902 0.150168
vt 0.613328 0.150168
vt 0.613328 0.126682
vt 0.625902 0.103197
vt 0.613328 0.103197
vt 0.625902 0.079712
vt 0.613328 0.079712
vt 0.625902 0.056227
vt 0.613328 0.056227
vt 0.131292 0.923558
vt 0.131292 0.946718
vt 0.118891 0.946718
vt 0.118891 0.923558
vt 0.613328 0.173653
vt 0.613328 0.197138
vt 0.600753 0.197138
vt 0.600753 0.173653
vt 0.600753 0.150168
vt 0.600753 0.126682
vt 0.600753 0.103197
vt 0.600753 0.079712
vt 0.600753 0.056227
vt 0.106491 0.946718
vt 0.106491 0.923558
vt 0.588178 0.197138
vt 0.588178 0.173653
vt 0.588178 0.150168
vt 0.588178 0.126682
vt 0.588178 0.103197
vt 0.588178 0.079712
vt 0.588178 0.056227
vt 0.094090 0.946718
vt 0.094090 0.923558
vt 0.575603 0.197138
vt 0.575603 0.173653
vt 0.575603 0.150168
vt 0.575603 0.126682
vt 0.575603 0.103197
vt 0.563028 0.197138
vt 0.563028 0.173653
vt 0.563028 0.150168
vt 0.563028 0.126682
vt 0.563028 0.103197
vt 0.247745 0.892159
vt 0.274968 0.889478
vt 0.301144 0.881537
vt 0.325269 0.868643
vt 0.346414 0.851289
vt 0.363768 0.830144
vt 0.376663 0.806019
vt 0.384604 0.779842
vt 0.387285 0.752619
vt 0.384604 0.725396
vt 0.376663 0.699220
vt 0.363768 0.675095
vt 0.346414 0.653949
vt 0.325269 0.636596
vt 0.301144 0.623701
vt 0.274968 0.615760
vt 0.247745 0.613079
vt 0.220522 0.615760
vt 0.194345 0.623701
vt 0.170220 0.636596
vt 0.149075 0.653949
vt 0.131721 0.675095
vt 0.118826 0.699220
vt 0.110886 0.725396
vt 0.108204 0.752619
vt 0.110886 0.779842
vt 0.118826 0.806019
vt 0.131721 0.830144
vt 0.149075 0.851289
vt 0.170220 0.868643
vt 0.194345 0.881537
vt 0.220522 0.889478
vt 0.452779 0.868413
vt 0.465812 0.868413
vt 0.465550 0.872677
vt 0.452779 0.872677
vt 0.940273 0.224738
vt 0.952596 0.224738
vt 0.951863 0.233939
vt 0.940273 0.233939
vt 0.653412 0.464960
vt 0.638370 0.466441
vt 0.638370 0.440438
vt 0.648339 0.439456
vt 0.638370 0.422774
vt 0.644893 0.422131
vt 0.638370 0.403193
vt 0.641073 0.402927
vt 0.439745 0.868413
vt 0.439745 0.872677
vt 0.927698 0.224738
vt 0.927698 0.233939
vt 0.667876 0.460572
vt 0.657925 0.436548
vt 0.651165 0.420229
vt 0.643672 0.402138
vt 0.426712 0.868413
vt 0.426712 0.872677
vt 0.915124 0.224738
vt 0.915124 0.233939
vt 0.681206 0.453447
vt 0.666759 0.431826
vt 0.656945 0.417139
vt 0.646067 0.400858
vt 0.413679 0.868413
vt 0.413679 0.872677
vt 0.902549 0.224738
vt 0.902549 0.233939
vt 0.692890 0.443858
vt 0.674502 0.425471
vt 0.662012 0.412981
vt 0.648167 0.399135
vt 0.400646 0.868413
vt 0.400646 0.872677
vt 0.889974 0.224738
vt 0.889974 0.233939
vt 0.702478 0.432174
vt 0.680857 0.417728
vt 0.666170 0.407914
vt 0.649890 0.397036
vt 0.387612 0.868413
vt 0.387612 0.872677
vt 0.877399 0.224738
vt 0.877399 0.233939
vt 0.709603 0.418844
vt 0.685579 0.408893
vt 0.669260 0.402133
vt 0.651170 0.394640
vt 0.374579 0.868413
vt 0.374579 0.872677
vt 0.864824 0.224738
vt 0.864824 0.233939
vt 0.713991 0.404380
vt 0.688487 0.399307
vt 0.671163 0.395861
vt 0.651958 0.392041
vt 0.361546 0.868413
vt 0.361546 0.872677
vt 0.852249 0.224738
vt 0.852249 0.233939
vt 0.715473 0.389338
vt 0.689469 0.389338
vt 0.671805 0.389338
vt 0.652225 0.389338
vt 0.348512 0.868413
vt 0.348512 0.872677
vt 0.839675 0.224738
vt 0.839675 0.233939
vt 0.713991 0.374296
vt 0.688487 0.379369
vt 0.671163 0.382815
vt 0.651958 0.386635
vt 0.335479 0.868413
vt 0.335479 0.872677
vt 0.827100 0.224738
vt 0.827100 0.233939
vt 0.709603 0.359832
vt 0.685579 0.369783
vt 0.669260 0.376543
vt 0.651170 0.384036
vt 0.322446 0.868413
vt 0.322446 0.872677
vt 0.814525 0.224738
vt 0.814525 0.233939
vt 0.702478 0.346502
vt 0.680857 0.360949
vt 0.666170 0.370762
vt 0.649890 0.381641
vt 0.309413 0.868413
vt 0.309413 0.872677
vt 0.801950 0.224738
vt 0.801950 0.233939
vt 0.692890 0.334818
vt 0.674502 0.353205
vt 0.662012 0.365695
vt 0.648167 0.379541
vt 0.296379 0.868413
vt 0.296379 0.872677
vt 0.789375 0.224738
vt 0.789375 0.233939
vt 0.681206 0.325229
vt 0.666759 0.346850
vt 0.656945 0.361537
vt 0.646067 0.377818
vt 0.283346 0.868413
vt 0.283346 0.872677
vt 0.776800 0.224738
vt 0.776800 0.233939
vt 0.667876 0.318104
vt 0.657924 0.342128
vt 0.651165 0.358448
vt 0.643672 0.376538
vt 0.270313 0.868413
vt 0.270313 0.872677
vt 0.764226 0.224738
vt 0.764226 0.233939
vt 0.653412 0.313717
vt 0.648339 0.339220
vt 0.644893 0.356545
vt 0.641073 0.375749
vt 0.257280 0.868413
vt 0.257280 0.872677
vt 0.751651 0.224738
vt 0.751651 0.233939
vt 0.638370 0.312235
vt 0.638370 0.338238
vt 0.638370 0.355902
vt 0.638370 0.375483
vt 0.244246 0.868413
vt 0.244246 0.872677
vt 0.739076 0.224738
vt 0.739076 0.233939
vt 0.623327 0.313717
vt 0.628401 0.339220
vt 0.631847 0.356545
vt 0.635667 0.375749
vt 0.231213 0.868413
vt 0.231213 0.872677
vt 0.726501 0.224738
vt 0.726501 0.233939
vt 0.608863 0.318104
vt 0.618815 0.342128
vt 0.625574 0.358448
vt 0.633067 0.376538
vt 0.218180 0.868413
vt 0.218180 0.872677
vt 0.713926 0.224738
vt 0.713926 0.233939
vt 0.595533 0.325229
vt 0.609980 0.346850
vt 0.619794 0.361537
vt 0.630672 0.377818
vt 0.205147 0.868413
vt 0.205147 0.872677
vt 0.701351 0.224738
vt 0.701351 0.233939
vt 0.583849 0.334818
vt 0.602237 0.353205
vt 0.614727 0.365695
vt 0.628573 0.379541
vt 0.192113 0.868413
vt 0.192113 0.872677
vt 0.688777 0.224738
vt 0.688777 0.233939
vt 0.574261 0.346502
vt 0.595882 0.360949
vt 0.610569 0.370762
vt 0.626850 0.381641
vt 0.179080 0.868413
vt 0.179080 0.872677
vt 0.676202 0.224738
vt 0.676202 0.233939
vt 0.567136 0.359832
vt 0.591160 0.369783
vt 0.607479 0.376543
vt 0.625569 0.384036
vt 0.166047 0.868413
vt 0.166047 0.872677
vt 0.663627 0.224738
vt 0.663627 0.233939
vt 0.562748 0.374296
vt 0.588252 0.379369
vt 0.605576 0.382815
vt 0.624781 0.386635
vt 0.153013 0.868413
vt 0.153013 0.872677
vt 0.651052 0.224738
vt 0.651052 0.233939
vt 0.561266 0.389338
vt 0.587270 0.389338
vt 0.604934 0.389338
vt 0.624515 0.389338
vt 0.139980 0.868413
vt 0.139980 0.872677
vt 0.638477 0.224738
vt 0.638477 0.233939
vt 0.562748 0.404380
vt 0.588252 0.399307
vt 0.605576 0.395861
vt 0.624781 0.392041
vt 0.126947 0.868413
vt 0.126947 0.872677
vt 0.625902 0.224738
vt 0.625902 0.233939
vt 0.567136 0.418844
vt 0.591160 0.408893
vt 0.607479 0.402133
vt 0.625569 0.394640
vt 0.113914 0.868413
vt 0.113914 0.872677
vt 0.613328 0.224738
vt 0.613328 0.233939
vt 0.574261 0.432174
vt 0.595882 0.417727
vt 0.610569 0.407914
vt 0.626850 0.397036
vt 0.100880 0.868413
vt 0.100880 0.872677
vt 0.600753 0.224738
vt 0.600753 0.233939
vt 0.583849 0.443858
vt 0.602237 0.425471
vt 0.614727 0.412981
vt 0.628573 0.399135
vt 0.087847 0.868413
vt 0.087847 0.872677
vt 0.588178 0.224738
vt 0.588178 0.233939
vt 0.595533 0.453447
vt 0.609980 0.431826
vt 0.619794 0.417139
vt 0.630672 0.400858
vt 0.074814 0.868413
vt 0.074814 0.872677
vt 0.575603 0.224738
vt 0.575603 0.233939
vt 0.608863 0.460572
vt 0.618815 0.436548
vt 0.625574 0.420229
vt 0.633067 0.402138
vt 0.061781 0.868413
vt 0.061781 0.872677
vt 0.563028 0.224738
vt 0.563028 0.233939
vt 0.623327 0.464960
vt 0.628400 0.439456
vt 0.631847 0.422131
vt 0.635667 0.402927
vt 0.048747 0.868413
vt 0.049009 0.872677
vt 0.550706 0.224738
vt 0.551439 0.233939
vt 0.952848 0.197138
vt 0.952848 0.220623
vt 0.940273 0.220623
vt 0.940273 0.197138
vt 0.563028 0.220623
vt 0.550454 0.220623
vt 0.550454 0.197138
vt 0.927698 0.220623
vt 0.927698 0.197138
vt 0.915124 0.220623
vt 0.915124 0.197138
vt 0.902549 0.220623
vt 0.902549 0.197138
vt 0.889974 0.220623
vt 0.889974 0.197138
vt 0.877399 0.220623
vt 0.877399 0.197138
vt 0.864824 0.220623
vt 0.864824 0.197138
vt 0.852249 0.220623
vt 0.852249 0.197138
vt 0.839675 0.220623
vt 0.839675 0.197138
vt 0.827100 0.220623
vt 0.827100 0.197138
vt 0.814525 0.220623
vt 0.814525 0.197138
vt 0.801950 0.220623
vt 0.801950 0.197138
vt 0.789375 0.220623
vt 0.789375 0.197138
vt 0.776800 0.220623
vt 0.776800 0.197138
vt 0.764226 0.220623
vt 0.764226 0.197138
vt 0.751651 0.220623
vt 0.751651 0.197138
vt 0.739076 0.220623
vt 0.739076 0.197138
vt 0.726501 0.220623
vt 0.726501 0.197138
vt 0.713926 0.220623
vt 0.713926 0.197138
vt 0.701351 0.220623
vt 0.701351 0.197138
vt 0.688777 0.220623
vt 0.688777 0.197138
vt 0.676202 0.220623
vt 0.676202 0.197138
vt 0.663627 0.220623
vt 0.663627 0.197138
vt 0.651052 0.220623
vt 0.651052 0.197138
vt 0.638477 0.220623
vt 0.638477 0.197138
vt 0.625902 0.220623
vt 0.625902 0.197138
vt 0.613328 0.220623
vt 0.600753 0.220623
vt 0.588178 0.220623
vt 0.575603 0.220623
vt 0.625902 0.173653
vt 0.143692 0.923558
vt 0.143692 0.946718
vt 0.638477 0.056227
vt 0.638477 0.079712
vt 0.638477 0.103197
vt 0.638477 0.126682
vt 0.638477 0.150168
vt 0.638477 0.173653
vt 0.156093 0.923558
vt 0.156093 0.946718
vt 0.651052 0.056227
vt 0.651052 0.079712
vt 0.651052 0.103197
vt 0.651052 0.126682
vt 0.651052 0.150168
vt 0.651052 0.173653
vt 0.168494 0.923558
vt 0.168494 0.946718
vt 0.663627 0.056227
vt 0.663627 0.079712
vt 0.663627 0.103197
vt 0.663627 0.126682
vt 0.663627 0.150168
vt 0.663627 0.173653
vt 0.180894 0.923558
vt 0.180894 0.946718
vt 0.676202 0.056227
vt 0.676202 0.079712
vt 0.676202 0.103197
vt 0.676202 0.126682
vt 0.676202 0.150168
vt 0.676202 0.173653
vt 0.193295 0.923558
vt 0.193295 0.946718
vt 0.688777 0.056227
vt 0.688777 0.079712
vt 0.688777 0.103197
vt 0.688777 0.126682
vt 0.688777 0.150168
vt 0.688777 0.173653
vt 0.205695 0.923558
vt 0.205695 0.946718
vt 0.701351 0.056227
vt 0.701351 0.079712
vt 0.701351 0.103197
vt 0.701351 0.126682
vt 0.701351 0.150168
vt 0.701351 0.173653
vt 0.218096 0.923558
vt 0.218096 0.946718
vt 0.713926 0.056227
vt 0.713926 0.079712
vt 0.713926 0.103197
vt 0.713926 0.126682
vt 0.713926 0.150168
vt 0.713926 0.173653
vt 0.230496 0.923558
vt 0.230496 0.946718
vt 0.726501 0.056227
vt 0.726501 0.079712
vt 0.726501 0.103197
vt 0.726501 0.126682
vt 0.726501 0.150168
vt 0.726501 0.173653
vt 0.242897 0.923558
vt 0.242897 0.946718
vt 0.739076 0.056227
vt 0.739076 0.079712
vt 0.739076 0.103197
vt 0.739076 0.126682
vt 0.739076 0.150168
vt 0.739076 0.173653
vt 0.255297 0.923558
vt 0.255297 0.946718
vt 0.751651 0.056227
vt 0.751651 0.079712
vt 0.751651 0.103197
vt 0.751651 0.126682
vt 0.751651 0.150168
vt 0.751651 0.173653
vt 0.267698 0.923558
vt 0.267698 0.946718
vt 0.764226 0.056227
vt 0.764226 0.079712
vt 0.764226 0.103197
vt 0.764226 0.126682
vt 0.764226 0.150168
vt 0.764226 0.173653
vt 0.280098 0.923558
vt 0.280098 0.946718
vt 0.776800 0.056227
vt 0.776800 0.079712
vt 0.776800 0.103197
vt 0.776800 0.126682
vt 0.776800 0.150168
vt 0.776800 0.173653
vt 0.292499 0.923558
vt 0.292499 0.946718
vt 0.789375 0.056227
vt 0.789375 0.079712
vt 0.789375 0.103197
vt 0.789375 0.126682
vt 0.789375 0.150168
vt 0.789375 0.173653
vt 0.304900 0.923558
vt 0.304900 0.946718
vt 0.801950 0.056227
vt 0.801950 0.079712
vt 0.801950 0.103197
vt 0.801950 0.126682
vt 0.801950 0.150168
vt 0.801950 0.173653
vt 0.317300 0.923558
vt 0.317300 0.946718
vt 0.814525 0.056227
vt 0.814525 0.079712
vt 0.814525 0.103197
vt 0.814525 0.126682
vt 0.814525 0.150168
vt 0.814525 0.173653
vt 0.329701 0.923558
vt 0.329701 0.946718
vt 0.827100 0.056227
vt 0.827100 0.079712
vt 0.827100 0.103197
vt 0.827100 0.126682
vt 0.827100 0.150168
vt 0.827100 0.173653
vt 0.342101 0.923558
vt 0.342101 0.946718
vt 0.839675 0.056227
vt 0.839675 0.079712
vt 0.839675 0.103197
vt 0.839675 0.126682
vt 0.839675 0.150168
vt 0.839675 0.173653
vt 0.354502 0.923558
vt 0.354502 0.946718
vt 0.852249 0.056227
vt 0.852249 0.079712
vt 0.852249 0.103197
vt 0.852249 0.126682
vt 0.852249 0.150168
vt 0.852249 0.173653
vt 0.366902 0.923558
vt 0.366902 0.946718
vt 0.864824 0.056227
vt 0.864824 0.079712
vt 0.864824 0.103197
vt 0.864824 0.126682
vt 0.864824 0.150168
vt 0.864824 0.173653
vt 0.379303 0.923558
vt 0.379303 0.946718
vt 0.877399 0.056227
vt 0.877399 0.079712
vt 0.877399 0.103197
vt 0.877399 0.126682
vt 0.877399 0.150168
vt 0.877399 0.173653
vt 0.391703 0.923558
vt 0.391703 0.946718
vt 0.889974 0.056227
vt 0.889974 0.079712
vt 0.889974 0.103197
vt 0.889974 0.126682
vt 0.889974 0.150168
vt 0.889974 0.173653
vt 0.404104 0.923558
vt 0.404104 0.946718
vt 0.902549 0.056227
vt 0.902549 0.079712
vt 0.902549 0.103197
vt 0.902549 0.126682
vt 0.902549 0.150168
vt 0.902549 0.173653
vt 0.416505 0.923558
vt 0.416505 0.946718
vt 0.915124 0.056227
vt 0.915124 0.079712
vt 0.915124 0.103197
vt 0.915124 0.126682
vt 0.915124 0.150168
vt 0.915124 0.173653
vt 0.428905 0.923558
vt 0.428905 0.946718
vt 0.927698 0.056227
vt 0.927698 0.079712
vt 0.927698 0.103197
vt 0.927698 0.126682
vt 0.927698 0.150168
vt 0.927698 0.173653
vt 0.441306 0.923558
vt 0.441306 0.946718
vt 0.940273 0.056227
vt 0.940273 0.079712
vt 0.940273 0.103197
vt 0.940273 0.126682
vt 0.940273 0.150168
vt 0.940273 0.173653
vt 0.056889 0.946718
vt 0.056889 0.923558
vt 0.550454 0.079712
vt 0.550454 0.056227
vt 0.550454 0.103197
vt 0.550454 0.126682
vt 0.550454 0.150168
vt 0.550454 0.173653
vt 0.453706 0.923558
vt 0.453706 0.946718
vt 0.952848 0.056227
vt 0.952848 0.079712
vt 0.952848 0.103197
vt 0.952848 0.126682
vt 0.952848 0.150168
vt 0.952848 0.173653
s 1
usemtl Material
f 448/1/1 447/2/2 34/3/3 36/4/4
f 61/5/5 448/6/1 36/7/4 63/8/6
f 417/9/7 416/10/8 423/11/9 424/12/10
f 418/13/11 417/9/7 424/12/10 425/14/12
f 419/15/13 418/13/11 425/14/12 426/16/14
f 420/17/15 419/15/13 426/16/14 427/18/16
f 53/19/17 420/20/15 427/21/16 55/22/18
f 422/23/19 421/24/20 428/25/21 429/26/22
f 423/11/9 422/23/19 429/26/22 430/27/23
f 424/12/10 423/11/9 430/27/23 431/28/24
f 425/14/12 424/12/10 431/28/24 432/29/25
f 426/16/14 425/14/12 432/29/25 433/30/26
f 427/18/16 426/16/14 433/30/26 434/31/27
f 55/22/18 427/21/16 434/32/27 57/33/28
f 429/26/22 428/25/21 435/34/29 436/35/30
f 430/27/23 429/26/22 436/35/30 437/36/31
f 431/28/24 430/27/23 437/36/31 438/37/32
f 432/29/25 431/28/24 438/37/32 439/38/33
f 433/30/26 432/29/25 439/38/33 440/39/34
f 434/31/27 433/30/26 440/39/34 441/40/35
f 57/33/28 434/32/27 441/41/35 59/42/36
f 436/35/30 435/34/29 442/43/37 443/44/38
f 437/36/31 436/35/30 443/44/38 444/45/39
f 438/37/32 437/36/31 444/45/39 445/46/40
f 439/38/33 438/37/32 445/46/40 446/47/41
f 440/39/34 439/38/33 446/47/41 447/2/2
f 441/40/35 440/39/34 447/2/2 448/1/1
f 59/42/36 441/41/35 448/6/1 61/5/5
f 443/44/38 442/43/37 24/48/42 26/49/43
f 444/45/39 443/44/38 26/49/43 28/50/44
f 445/46/40 444/45/39 28/50/44 30/51/45
f 446/47/41 445/46/40 30/51/45 32/52/46
f 447/2/2 446/47/41 32/52/46 34/3/3
f 1/53/47 3/54/47 5/55/47 7/56/47 9/57/47 11/58/47 13/59/47 15/60/47 17/61/47 19/62/47 21/63/47 23/64/47 25/65/47 27/66/47 29/67/47 31/68/47 33/69/47 35/70/47 37/71/47 39/72/47 41/73/47 43/74/47 45/75/47 47/76/47 49/77/47 51/78/47 53/79/47 55/80/47 57/81/47 59/82/47 61/83/47 63/84/47
f 72/85/48 66/86/49 70/87/50 76/88/51
f 76/89/51 70/90/50 69/91/52 75/92/53
f 75/93/53 69/94/52 68/95/54 74/96/55
f 74/96/55 68/95/54 67/97/56 73/98/57
f 73/98/57 67/97/56 65/99/58 71/100/59
f 78/101/60 72/85/48 76/88/51 82/102/61
f 82/103/61 76/89/51 75/92/53 81/104/62
f 81/105/62 75/93/53 74/96/55 80/106/63
f 80/106/63 74/96/55 73/98/57 79/107/64
f 79/107/64 73/98/57 71/100/59 77/108/65
f 84/109/66 78/101/60 82/102/61 88/110/67
f 88/111/67 82/103/61 81/104/62 87/112/68
f 87/113/68 81/105/62 80/106/63 86/114/69
f 86/114/69 80/106/63 79/107/64 85/115/70
f 85/115/70 79/107/64 77/108/65 83/116/71
f 90/117/72 84/109/66 88/110/67 94/118/73
f 94/119/73 88/111/67 87/112/68 93/120/74
f 93/121/74 87/113/68 86/114/69 92/122/75
f 92/122/75 86/114/69 85/115/70 91/123/76
f 91/123/76 85/115/70 83/116/71 89/124/77
f 96/125/78 90/117/72 94/118/73 100/126/79
f 100/127/79 94/119/73 93/120/74 99/128/80
f 99/129/80 93/121/74 92/122/75 98/130/81
f 98/130/81 92/122/75 91/123/76 97/131/82
f 97/131/82 91/123/76 89/124/77 95/132/83
f 102/133/84 96/125/78 100/126/79 106/134/85
f 106/135/85 100/127/79 99/128/80 105/136/86
f 105/137/86 99/129/80 98/130/81 104/138/87
f 104/138/87 98/130/81 97/131/82 103/139/88
f 103/139/88 97/131/82 95/132/83 101/140/89
f 108/141/90 102/133/84 106/134/85 112/142/91
f 112/143/91 106/135/85 105/136/86 111/144/92
f 111/145/92 105/137/86 104/138/87 110/146/93
f 110/146/93 104/138/87 103/139/88 109/147/94
f 109/147/94 103/139/88 101/140/89 107/148/95
f 114/149/96 108/141/90 112/142/91 118/150/97
f 118/151/97 112/143/91 111/144/92 117/152/98
f 117/153/98 111/145/92 110/146/93 116/154/99
f 116/154/99 110/146/93 109/147/94 115/155/100
f 115/155/100 109/147/94 107/148/95 113/156/101
f 120/157/102 114/149/96 118/150/97 124/158/103
f 124/159/103 118/151/97 117/152/98 123/160/104
f 123/161/104 117/153/98 116/154/99 122/162/105
f 122/162/105 116/154/99 115/155/100 121/163/106
f 121/163/106 115/155/100 113/156/101 119/164/107
f 126/165/108 120/157/102 124/158/103 130/166/109
f 130/167/109 124/159/103 123/160/104 129/168/110
f 129/169/110 123/161/104 122/162/105 128/170/111
f 128/170/111 122/162/105 121/163/106 127/171/112
f 127/171/112 121/163/106 119/164/107 125/172/113
f 132/173/114 126/165/108 130/166/109 136/174/115
f 136/175/115 130/167/109 129/168/110 135/176/116
f 135/177/116 129/169/110 128/170/111 134/178/117
f 134/178/117 128/170/111 127/171/112 133/179/118
f 133/179/118 127/171/112 125/172/113 131/180/119
f 138/181/120 132/173/114 136/174/115 142/182/121
f 142/183/121 136/175/115 135/176/116 141/184/122
f 141/185/122 135/177/116 134/178/117 140/186/123
f 140/186/123 134/178/117 133/179/118 139/187/124
f 139/187/124 133/179/118 131/180/119 137/188/125
f 144/189/126 138/181/120 142/182/121 148/190/127
f 148/191/127 142/183/121 141/184/122 147/192/128
f 147/193/128 141/185/122 140/186/123 146/194/129
f 146/194/129 140/186/123 139/187/124 145/195/130
f 145/195/130 139/187/124 137/188/125 143/196/131
f 150/197/132 144/189/126 148/190/127 154/198/133
f 154/199/133 148/191/127 147/192/128 153/200/134
f 153/201/134 147/193/128 146/194/129 152/202/135
f 152/202/135 146/194/129 145/195/130 151/203/136
f 151/203/136 145/195/130 143/196/131 149/204/137
f 156/205/138 150/197/132 154/198/133 160/206/139
f 160/207/139 154/199/133 153/200/134 159/208/140
f 159/209/140 153/201/134 152/202/135 158/210/141
f 158/210/141 152/202/135 151/203/136 157/211/142
f 157/211/142 151/203/136 149/204/137 155/212/143
f 162/213/144 156/205/138 160/206/139 166/214/145
f 166/215/145 160/207/139 159/208/140 165/216/146
f 165/217/146 159/209/140 158/210/141 164/218/147
f 164/218/147 158/210/141 157/211/142 163/219/148
f 163/219/148 157/211/142 155/212/143 161/220/149
f 168/221/150 162/213/144 166/214/145 172/222/151
f 172/223/151 166/215/145 165/216/146 171/224/152
f 171/225/152 165/217/146 164/218/147 170/226/153
f 170/226/153 164/218/147 163/219/148 169/227/154
f 169/227/154 163/219/148 161/220/149 167/228/155
f 174/229/156 168/221/150 172/222/151 178/230/157
f 178/231/157 172/223/151 171/224/152 177/232/158
f 177/233/158 171/225/152 170/226/153 176/234/159
f 176/234/159 170/226/153 169/227/154 175/235/160
f 175/235/160 169/227/154 167/228/155 173/236/161
f 180/237/162 174/229/156 178/230/157 184/238/163
f 184/239/163 178/231/157 177/232/158 183/240/164
f 183/241/164 177/233/158 176/234/159 182/242/165
f 182/242/165 176/234/159 175/235/160 181/243/166
f 181/243/166 175/235/160 173/236/161 179/244/167
f 186/245/168 180/237/162 184/238/163 190/246/169
f 190/247/169 184/239/163 183/240/164 189/248/170
f 189/249/170 183/241/164 182/242/165 188/250/171
f 188/250/171 182/242/165 181/243/166 187/251/172
f 187/251/172 181/243/166 179/244/167 185/252/173
f 192/253/174 186/245/168 190/246/169 196/254/175
f 196/255/175 190/247/169 189/248/170 195/256/176
f 195/257/176 189/249/170 188/250/171 194/258/177
f 194/258/177 188/250/171 187/251/172 193/259/178
f 193/259/178 187/251/172 185/252/173 191/260/179
f 198/261/180 192/253/174 196/254/175 202/262/181
f 202/263/181 196/255/175 195/256/176 201/264/182
f 201/265/182 195/257/176 194/258/177 200/266/183
f 200/266/183 194/258/177 193/259/178 199/267/184
f 199/267/184 193/259/178 191/260/179 197/268/185
f 204/269/186 198/261/180 202/262/181 208/270/187
f 208/271/187 202/263/181 201/264/182 207/272/188
f 207/273/188 201/265/182 200/266/183 206/274/189
f 206/274/189 200/266/183 199/267/184 205/275/190
f 205/275/190 199/267/184 197/268/185 203/276/191
f 210/277/192 204/269/186 208/270/187 214/278/193
f 214/279/193 208/271/187 207/272/188 213/280/194
f 213/281/194 207/273/188 206/274/189 212/282/195
f 212/282/195 206/274/189 205/275/190 211/283/196
f 211/283/196 205/275/190 203/276/191 209/284/197
f 216/285/198 210/277/192 214/278/193 220/286/199
f 220/287/199 214/279/193 213/280/194 219/288/200
f 219/289/200 213/281/194 212/282/195 218/290/201
f 218/290/201 212/282/195 211/283/196 217/291/202
f 217/291/202 211/283/196 209/284/197 215/292/203
f 222/293/204 216/285/198 220/286/199 226/294/205
f 226/295/205 220/287/199 219/288/200 225/296/206
f 225/297/206 219/289/200 218/290/201 224/298/207
f 224/298/207 218/290/201 217/291/202 223/299/208
f 223/299/208 217/291/202 215/292/203 221/300/209
f 228/301/210 222/293/204 226/294/205 232/302/211
f 232/303/211 226/295/205 225/296/206 231/304/212
f 231/305/212 225/297/206 224/298/207 230/306/213
f 230/306/213 224/298/207 223/299/208 229/307/214
f 229/307/214 223/299/208 221/300/209 227/308/215
f 234/309/216 228/301/210 232/302/211 238/310/217
f 238/311/217 232/303/211 231/304/212 237/312/218
f 237/313/218 231/305/212 230/306/213 236/314/219
f 236/314/219 230/306/213 229/307/214 235/315/220
f 235/315/220 229/307/214 227/308/215 233/316/221
f 240/317/222 234/309/216 238/310/217 244/318/223
f 244/319/223 238/311/217 237/312/218 243/320/224
f 243/321/224 237/313/218 236/314/219 242/322/225
f 242/322/225 236/314/219 235/315/220 241/323/226
f 241/323/226 235/315/220 233/316/221 239/324/227
f 246/325/228 240/317/222 244/318/223 250/326/229
f 250/327/229 244/319/223 243/320/224 249/328/230
f 249/329/230 243/321/224 242/322/225 248/330/231
f 248/330/231 242/322/225 241/323/226 247/331/232
f 247/331/232 241/323/226 239/324/227 245/332/233
f 252/333/234 246/325/228 250/326/229 256/334/235
f 256/335/235 250/327/229 249/328/230 255/336/236
f 255/337/236 249/329/230 248/330/231 254/338/237
f 254/338/237 248/330/231 247/331/232 253/339/238
f 253/339/238 247/331/232 245/332/233 251/340/239
f 66/341/49 252/333/234 256/334/235 70/342/50
f 70/343/50 256/335/235 255/336/236 69/344/52
f 69/94/52 255/337/236 254/338/237 68/95/54
f 68/95/54 254/338/237 253/339/238 67/97/56
f 67/97/56 253/339/238 251/340/239 65/99/58
f 71/100/59 65/99/58 251/340/239 245/332/233 239/324/227 233/316/221 227/308/215 221/300/209 215/292/203 209/284/197 203/276/191 197/268/185 191/260/179 185/252/173 179/244/167 173/236/161 167/228/155 161/220/149 155/212/143 149/204/137 143/196/131 137/188/125 131/180/119 125/172/113 119/164/107 113/156/101 107/148/95 101/140/89 95/132/83 89/124/77 83/116/71 77/108/65
f 52/345/240 66/346/49 72/347/48 50/348/241
f 24/48/42 252/349/234 66/350/49 52/351/240
f 50/348/241 72/347/48 78/352/60 22/353/242
f 22/353/242 78/352/60 84/354/66 8/355/243
f 8/355/243 84/354/66 90/356/72 260/357/244
f 260/357/244 90/356/72 96/358/78 267/359/245
f 267/359/245 96/358/78 102/360/84 274/361/246
f 274/361/246 102/360/84 108/362/90 281/363/247
f 281/363/247 108/362/90 114/364/96 288/365/248
f 288/365/248 114/364/96 120/366/102 295/367/249
f 295/367/249 120/366/102 126/368/108 302/369/250
f 302/369/250 126/368/108 132/370/114 309/371/251
f 309/371/251 132/370/114 138/372/120 316/373/252
f 316/373/252 138/372/120 144/374/126 323/375/253
f 323/375/253 144/374/126 150/376/132 330/377/254
f 330/377/254 150/376/132 156/378/138 337/379/255
f 337/379/255 156/378/138 162/380/144 344/381/256
f 344/381/256 162/380/144 168/382/150 351/383/257
f 351/383/257 168/382/150 174/384/156 358/385/258
f 358/385/258 174/384/156 180/386/162 365/387/259
f 365/387/259 180/386/162 186/388/168 372/389/260
f 372/389/260 186/388/168 192/390/174 379/391/261
f 379/391/261 192/390/174 198/392/180 386/393/262
f 386/393/262 198/392/180 204/394/186 393/395/263
f 393/395/263 204/394/186 210/396/192 400/397/264
f 400/397/264 210/396/192 216/398/198 407/399/265
f 407/399/265 216/398/198 222/400/204 414/401/266
f 414/401/266 222/400/204 228/402/210 421/24/20
f 421/24/20 228/402/210 234/403/216 428/25/21
f 428/25/21 234/403/216 240/404/222 435/34/29
f 435/34/29 240/404/222 246/405/228 442/43/37
f 442/43/37 246/405/228 252/349/234 24/48/42
f 416/10/8 415/406/267 422/23/19 423/11/9
f 415/406/267 414/401/266 421/24/20 422/23/19
f 51/407/268 413/408/269 420/20/15 53/19/17
f 413/409/269 412/410/270 419/15/13 420/17/15
f 412/410/270 411/411/271 418/13/11 419/15/13
f 411/411/271 410/412/272 417/9/7 418/13/11
f 410/412/272 409/413/273 416/10/8 417/9/7
f 409/413/273 408/414/274 415/406/267 416/10/8
f 408/414/274 407/399/265 414/401/266 415/406/267
f 49/415/275 406/416/276 413/408/269 51/407/268
f 406/417/276 405/418/277 412/410/270 413/409/269
f 405/418/277 404/419/278 411/411/271 412/410/270
f 404/419/278 403/420/279 410/412/272 411/411/271
f 403/420/279 402/421/280 409/413/273 410/412/272
f 402/421/280 401/422/281 408/414/274 409/413/273
f 401/422/281 400/397/264 407/399/265 408/414/274
f 47/423/282 399/424/283 406/416/276 49/415/275
f 399/425/283 398/426/284 405/418/277 406/417/276
f 398/426/284 397/427/285 404/419/278 405/418/277
f 397/427/285 396/428/286 403/420/279 404/419/278
f 396/428/286 395/429/287 402/421/280 403/420/279
f 395/429/287 394/430/288 401/422/281 402/421/280
f 394/430/288 393/395/263 400/397/264 401/422/281
f 45/431/289 392/432/290 399/424/283 47/423/282
f 392/433/290 391/434/291 398/426/284 399/425/283
f 391/434/291 390/435/292 397/427/285 398/426/284
f 390/435/292 389/436/293 396/428/286 397/427/285
f 389/436/293 388/437/294 395/429/287 396/428/286
f 388/437/294 387/438/295 394/430/288 395/429/287
f 387/438/295 386/393/262 393/395/263 394/430/288
f 43/439/296 385/440/297 392/432/290 45/431/289
f 385/441/297 384/442/298 391/434/291 392/433/290
f 384/442/298 383/443/299 390/435/292 391/434/291
f 383/443/299 382/444/300 389/436/293 390/435/292
f 382/444/300 381/445/301 388/437/294 389/436/293
f 381/445/301 380/446/302 387/438/295 388/437/294
f 380/446/302 379/391/261 386/393/262 387/438/295
f 41/447/303 378/448/304 385/440/297 43/439/296
f 378/449/304 377/450/305 384/442/298 385/441/297
f 377/450/305 376/451/306 383/443/299 384/442/298
f 376/451/306 375/452/307 382/444/300 383/443/299
f 375/452/307 374/453/308 381/445/301 382/444/300
f 374/453/308 373/454/309 380/446/302 381/445/301
f 373/454/309 372/389/260 379/391/261 380/446/302
f 39/455/310 371/456/311 378/448/304 41/447/303
f 371/457/311 370/458/312 377/450/305 378/449/304
f 370/458/312 369/459/313 376/451/306 377/450/305
f 369/459/313 368/460/314 375/452/307 376/451/306
f 368/460/314 367/461/315 374/453/308 375/452/307
f 367/461/315 366/462/316 373/454/309 374/453/308
f 366/462/316 365/387/259 372/389/260 373/454/309
f 37/463/317 364/464/318 371/456/311 39/455/310
f 364/465/318 363/466/319 370/458/312 371/457/311
f 363/466/319 362/467/320 369/459/313 370/458/312
f 362/467/320 361/468/321 368/460/314 369/459/313
f 361/468/321 360/469/322 367/461/315 368/460/314
f 360/469/322 359/470/323 366/462/316 367/461/315
f 359/470/323 358/385/258 365/387/259 366/462/316
f 35/471/324 357/472/325 364/464/318 37/463/317
f 357/473/325 356/474/326 363/466/319 364/465/318
f 356/474/326 355/475/327 362/467/320 363/466/319
f 355/475/327 354/476/328 361/468/321 362/467/320
f 354/476/328 353/477/329 360/469/322 361/468/321
f 353/477/329 352/478/330 359/470/323 360/469/322
f 352/478/330 351/383/257 358/385/258 359/470/323
f 33/479/331 350/480/332 357/472/325 35/471/324
f 350/481/332 349/482/333 356/474/326 357/473/325
f 349/482/333 348/483/334 355/475/327 356/474/326
f 348/483/334 347/484/335 354/476/328 355/475/327
f 347/484/335 346/485/336 353/477/329 354/476/328
f 346/485/336 345/486/337 352/478/330 353/477/329
f 345/486/337 344/381/256 351/383/257 352/478/330
f 31/487/338 343/488/339 350/480/332 33/479/331
f 343/489/339 342/490/340 349/482/333 350/481/332
f 342/490/340 341/491/341 348/483/334 349/482/333
f 341/491/341 340/492/342 347/484/335 348/483/334
f 340/492/342 339/493/343 346/485/336 347/484/335
f 339/493/343 338/494/344 345/486/337 346/485/336
f 338/494/344 337/379/255 344/381/256 345/486/337
f 29/495/345 336/496/346 343/488/339 31/487/338
f 336/497/346 335/498/347 342/490/340 343/489/339
f 335/498/347 334/499/348 341/491/341 342/490/340
f 334/499/348 333/500/349 340/492/342 341/491/341
f 333/500/349 332/501/350 339/493/343 340/492/342
f 332/501/350 331/502/351 338/494/344 339/493/343
f 331/502/351 330/377/254 337/379/255 338/494/344
f 27/503/352 329/504/353 336/496/346 29/495/345
f 329/505/353 328/506/354 335/498/347 336/497/346
f 328/506/354 327/507/355 334/499/348 335/498/347
f 327/507/355 326/508/356 333/500/349 334/499/348
f 326/508/356 325/509/357 332/501/350 333/500/349
f 325/509/357 324/510/358 331/502/351 332/501/350
f 324/510/358 323/375/253 330/377/254 331/502/351
f 25/511/359 322/512/360 329/504/353 27/503/352
f 322/513/360 321/514/361 328/506/354 329/505/353
f 321/514/361 320/515/362 327/507/355 328/506/354
f 320/515/362 319/516/363 326/508/356 327/507/355
f 319/516/363 318/517/364 325/509/357 326/508/356
f 318/517/364 317/518/365 324/510/358 325/509/357
f 317/518/365 316/373/252 323/375/253 324/510/358
f 23/519/366 315/520/367 322/512/360 25/511/359
f 315/521/367 314/522/368 321/514/361 322/513/360
f 314/522/368 313/523/369 320/515/362 321/514/361
f 313/523/369 312/524/370 319/516/363 320/515/362
f 312/524/370 311/525/371 318/517/364 319/516/363
f 311/525/371 310/526/372 317/518/365 318/517/364
f 310/526/372 309/371/251 316/373/252 317/518/365
f 21/527/373 308/528/374 315/520/367 23/519/366
f 308/529/374 307/530/375 314/522/368 315/521/367
f 307/530/375 306/531/376 313/523/369 314/522/368
f 306/531/376 305/532/377 312/524/370 313/523/369
f 305/532/377 304/533/378 311/525/371 312/524/370
f 304/533/378 303/534/379 310/526/372 311/525/371
f 303/534/379 302/369/250 309/371/251 310/526/372
f 19/535/380 301/536/381 308/528/374 21/527/373
f 301/537/381 300/538/382 307/530/375 308/529/374
f 300/538/382 299/539/383 306/531/376 307/530/375
f 299/539/383 298/540/384 305/532/377 306/531/376
f 298/540/384 297/541/385 304/533/378 305/532/377
f 297/541/385 296/542/386 303/534/379 304/533/378
f 296/542/386 295/367/249 302/369/250 303/534/379
f 17/543/387 294/544/388 301/536/381 19/535/380
f 294/545/388 293/546/389 300/538/382 301/537/381
f 293/546/389 292/547/390 299/539/383 300/538/382
f 292/547/390 291/548/391 298/540/384 299/539/383
f 291/548/391 290/549/392 297/541/385 298/540/384
f 290/549/392 289/550/393 296/542/386 297/541/385
f 289/550/393 288/365/248 295/367/249 296/542/386
f 15/551/394 287/552/395 294/544/388 17/543/387
f 287/553/395 286/554/396 293/546/389 294/545/388
f 286/554/396 285/555/397 292/547/390 293/546/389
f 285/555/397 284/556/398 291/548/391 292/547/390
f 284/556/398 283/557/399 290/549/392 291/548/391
f 283/557/399 282/558/400 289/550/393 290/549/392
f 282/558/400 281/363/247 288/365/248 289/550/393
f 13/559/401 280/560/402 287/552/395 15/551/394
f 280/561/402 279/562/403 286/554/396 287/553/395
f 279/562/403 278/563/404 285/555/397 286/554/396
f 278/563/404 277/564/405 284/556/398 285/555/397
f 277/564/405 276/565/406 283/557/399 284/556/398
f 276/565/406 275/566/407 282/558/400 283/557/399
f 275/566/407 274/361/246 281/363/247 282/558/400
f 11/567/408 273/568/409 280/560/402 13/559/401
f 273/569/409 272/570/410 279/562/403 280/561/402
f 272/570/410 271/571/411 278/563/404 279/562/403
f 271/571/411 270/572/412 277/564/405 278/563/404
f 270/572/412 269/573/413 276/565/406 277/564/405
f 269/573/413 268/574/414 275/566/407 276/565/406
f 268/574/414 267/359/245 274/361/246 275/566/407
f 9/575/415 266/576/416 273/568/409 11/567/408
f 266/577/416 265/578/417 272/570/410 273/569/409
f 265/578/417 264/579/418 271/571/411 272/570/410
f 264/579/418 263/580/419 270/572/412 271/571/411
f 263/580/419 262/581/420 269/573/413 270/572/412
f 262/581/420 261/582/421 268/574/414 269/573/413
f 261/582/421 260/357/244 267/359/245 268/574/414
f 7/583/422 259/584/423 266/576/416 9/575/415
f 259/585/423 258/586/424 265/578/417 266/577/416
f 258/586/424 257/587/425 264/579/418 265/578/417
f 257/587/425 2/588/426 263/580/419 264/579/418
f 2/588/426 4/589/427 262/581/420 263/580/419
f 4/589/427 6/590/428 261/582/421 262/581/420
f 6/590/428 8/355/243 260/357/244 261/582/421
f 5/591/429 10/592/430 259/584/423 7/583/422
f 10/593/430 12/594/431 258/586/424 259/585/423
f 12/594/431 14/595/432 257/587/425 258/586/424
f 14/595/432 16/596/433 2/588/426 257/587/425
f 16/596/433 18/597/434 4/589/427 2/588/426
f 18/597/434 20/598/435 6/590/428 4/589/427
f 20/598/435 22/353/242 8/355/243 6/590/428
f 3/599/436 38/600/437 10/592/430 5/591/429
f 38/601/437 40/602/438 12/594/431 10/593/430
f 40/602/438 42/603/439 14/595/432 12/594/431
f 42/603/439 44/604/440 16/596/433 14/595/432
f 44/604/440 46/605/441 18/597/434 16/596/433
f 46/605/441 48/606/442 20/598/435 18/597/434
f 48/606/442 50/348/241 22/353/242 20/598/435
f 63/8/6 36/7/4 64/607/443 1/608/444
f 36/4/4 34/3/3 62/609/445 64/610/443
f 34/3/3 32/52/46 60/611/446 62/609/445
f 32/52/46 30/51/45 58/612/447 60/611/446
f 30/51/45 28/50/44 56/613/448 58/612/447
f 28/50/44 26/49/43 54/614/449 56/613/448
f 26/49/43 24/48/42 52/351/240 54/614/449
f 1/615/444 64/616/443 38/600/437 3/599/436
f 64/617/443 62/618/445 40/602/438 38/601/437
f 62/618/445 60/619/446 42/603/439 40/602/438
f 60/619/446 58/620/447 44/604/440 42/603/439
f 58/620/447 56/621/448 46/605/441 44/604/440
f 56/621/448 54/622/449 48/606/442 46/605/441
f 54/622/449 52/345/240 50/348/241 48/606/442
o Cube
v -0.002149 -0.050510 0.110881
v 0.002149 -0.050510 0.110881
v -0.001100 -0.030854 0.009036
v -0.002149 -0.027518 0.006729
v -0.001424 -0.030482 0.008323
v -0.001716 -0.029898 0.007680
v -0.001948 -0.029160 0.007170
v -0.002097 -0.028340 0.006842
v 0.001100 -0.030854 0.009036
v 0.002149 -0.027518 0.006729
v 0.001424 -0.030482 0.008323
v 0.001716 -0.029898 0.007680
v 0.001948 -0.029160 0.007170
v 0.002097 -0.028340 0.006842
v -0.002149 -0.059638 0.099131
v -0.001100 -0.062174 0.099131
v -0.002149 -0.060453 0.100864
v -0.002097 -0.060421 0.099131
v -0.001948 -0.061128 0.099131
v -0.001716 -0.061689 0.099131
v -0.001424 -0.062049 0.099131
v 0.001100 -0.062174 0.099131
v 0.002149 -0.059638 0.099131
v 0.002149 -0.060453 0.100864
v 0.001424 -0.062049 0.099131
v 0.001716 -0.061689 0.099131
v 0.001948 -0.061128 0.099131
v 0.002097 -0.060421 0.099131
v -0.000000 -0.024399 0.014390
v 0.000000 -0.022825 0.036907
v -0.000000 -0.022596 0.066471
v 0.000000 -0.029490 0.093686
v 0.002149 -0.025120 0.110881
v -0.000000 -0.025332 0.110881
v -0.002149 -0.025120 0.110881
v -0.000000 -0.025718 0.006729
v -0.002149 -0.025506 0.006729
v 0.002149 -0.025506 0.006729
v -0.002149 -0.022614 0.036907
v -0.002149 -0.024187 0.014390
v -0.002149 -0.022384 0.066471
v -0.002149 -0.029278 0.093686
v -0.002149 -0.027962 0.099131
v 0.002149 -0.024187 0.014390
v 0.002149 -0.022384 0.066471
v 0.002149 -0.022614 0.036907
v 0.002149 -0.029278 0.093686
v 0.002149 -0.027962 0.099131
v -0.050510 0.002149 0.110881
v -0.050510 -0.002149 0.110881
v -0.030854 0.001100 0.009036
v -0.027518 0.002149 0.006729
v -0.030482 0.001424 0.008323
v -0.029898 0.001716 0.007680
v -0.029160 0.001948 0.007170
v -0.028340 0.002097 0.006842
v -0.030854 -0.001100 0.009036
v -0.027518 -0.002149 0.006729
v -0.030482 -0.001424 0.008323
v -0.029898 -0.001716 0.007680
v -0.029160 -0.001948 0.007170
v -0.028340 -0.002097 0.006842
v -0.059638 0.002149 0.099131
v -0.062174 0.001100 0.099131
v -0.060453 0.002149 0.100864
v -0.060421 0.002097 0.099131
v -0.061128 0.001948 0.099131
v -0.061689 0.001716 0.099131
v -0.062049 0.001424 0.099131
v -0.062174 -0.001100 0.099131
v -0.059638 -0.002149 0.099131
v -0.060453 -0.002149 0.100864
v -0.062049 -0.001424 0.099131
v -0.061689 -0.001716 0.099131
v -0.061128 -0.001948 0.099131
v -0.060421 -0.002097 0.099131
v -0.024399 -0.000000 0.014390
v -0.022825 -0.000000 0.036907
v -0.022596 -0.000000 0.066471
v -0.029490 -0.000000 0.093686
v -0.025120 -0.002149 0.110881
v -0.025332 -0.000000 0.110881
v -0.025120 0.002149 0.110881
v -0.025718 -0.000000 0.006729
v -0.025506 0.002149 0.006729
v -0.025506 -0.002149 0.006729
v -0.022614 0.002149 0.036907
v -0.024187 0.002149 0.014390
v -0.022384 0.002149 0.066471
v -0.029278 0.002149 0.093686
v -0.027961 0.002149 0.099131
v -0.024187 -0.002149 0.014390
v -0.022384 -0.002149 0.066471
v -0.022614 -0.002149 0.036907
v -0.029278 -0.002149 0.093686
v -0.027961 -0.002149 0.099131
v 0.002149 0.050510 0.110881
v -0.002149 0.050510 0.110881
v 0.001100 0.030854 0.009036
v 0.002149 0.027518 0.006729
v 0.001424 0.030482 0.008323
v 0.001716 0.029898 0.007680
v 0.001948 0.029160 0.007170
v 0.002097 0.028340 0.006842
v -0.001100 0.030854 0.009036
v -0.002149 0.027518 0.006729
v -0.001424 0.030482 0.008323
v -0.001716 0.029898 0.007680
v -0.001948 0.029160 0.007170
v -0.002097 0.028340 0.006842
v 0.002149 0.059638 0.099131
v 0.001100 0.062174 0.099131
v 0.002149 0.060453 0.100864
v 0.002097 0.060421 0.099131
v 0.001948 0.061128 0.099131
v 0.001716 0.061689 0.099131
v 0.001424 0.062049 0.099131
v -0.001100 0.062174 0.099131
v -0.002149 0.059638 0.099131
v -0.002149 0.060453 0.100864
v -0.001424 0.062049 0.099131
v -0.001716 0.061689 0.099131
v -0.001948 0.061128 0.099131
v -0.002097 0.060421 0.099131
v 0.000000 0.024399 0.014390
v 0.000000 0.022825 0.036907
v 0.000000 0.022596 0.066471
v 0.000000 0.029490 0.093686
v -0.002149 0.025120 0.110881
v 0.000000 0.025332 0.110881
v 0.002149 0.025120 0.110881
v 0.000000 0.025718 0.006729
v 0.002149 0.025506 0.006729
v -0.002149 0.025506 0.006729
v 0.002149 0.022614 0.036907
v 0.002149 0.024187 0.014390
v 0.002149 0.022384 0.066471
v 0.002149 0.029278 0.093686
v 0.002149 0.027961 0.099131
v -0.002149 0.024187 0.014390
v -0.002149 0.022384 0.066471
v -0.002149 0.022614 0.036907
v -0.002149 0.029278 0.093686
v -0.002149 0.027961 0.099131
v 0.050510 -0.002149 0.110881
v 0.050510 0.002149 0.110881
v 0.030854 -0.001100 0.009036
v 0.027518 -0.002149 0.006729
v 0.030482 -0.001424 0.008323
v 0.029898 -0.001716 0.007680
v 0.029160 -0.001948 0.007170
v 0.028340 -0.002097 0.006842
v 0.030854 0.001100 0.009036
v 0.027518 0.002149 0.006729
v 0.030482 0.001424 0.008323
v 0.029898 0.001716 0.007680
v 0.029160 0.001948 0.007170
v 0.028340 0.002097 0.006842
v 0.059638 -0.002149 0.099131
v 0.062174 -0.001100 0.099131
v 0.060453 -0.002149 0.100864
v 0.060421 -0.002097 0.099131
v 0.061128 -0.001948 0.099131
v 0.061689 -0.001716 0.099131
v 0.062049 -0.001424 0.099131
v 0.062174 0.001100 0.099131
v 0.059638 0.002149 0.099131
v 0.060453 0.002149 0.100864
v 0.062049 0.001424 0.099131
v 0.061689 0.001716 0.099131
v 0.061128 0.001948 0.099131
v 0.060421 0.002097 0.099131
v 0.024399 -0.000000 0.014390
v 0.022825 -0.000000 0.036907
v 0.022596 -0.000000 0.066471
v 0.029490 -0.000000 0.093686
v 0.025120 0.002149 0.110881
v 0.025332 -0.000000 0.110881
v 0.025120 -0.002149 0.110881
v 0.025718 -0.000000 0.006729
v 0.025506 -0.002149 0.006729
v 0.025506 0.002149 0.006729
v 0.022614 -0.002149 0.036907
v 0.024187 -0.002149 0.014390
v 0.022384 -0.002149 0.066471
v 0.029278 -0.002149 0.093686
v 0.027961 -0.002149 0.099131
v 0.024187 0.002149 0.014390
v 0.022384 0.002149 0.066471
v 0.022614 0.002149 0.036907
v 0.029278 0.002149 0.093686
v 0.027961 0.002149 0.099131
vn -0.0000 -0.0000 1.0000
vn -0.9974 -0.0653 -0.0307
vn -0.9780 -0.2061 -0.0327
vn -0.9233 -0.3818 0.0421
vn -0.7522 -0.6105 0.2479
vn -0.2915 -0.7612 0.5793
vn 0.2915 -0.7612 0.5793
vn 0.7522 -0.6105 0.2479
vn 0.9233 -0.3818 0.0421
vn 0.9780 -0.2061 -0.0327
vn 0.9974 -0.0653 -0.0307
vn -0.0000 -0.1361 -0.9907
vn -0.0000 -0.3710 -0.9286
vn -0.0000 -0.5688 -0.8225
vn -0.0000 -0.7406 -0.6719
vn -0.0000 -0.8866 -0.4625
vn -0.3400 -0.8883 -0.3088
vn -0.7583 -0.6157 -0.2141
vn -0.9160 -0.3790 -0.1317
vn -0.9760 -0.2057 -0.0715
vn -0.9976 -0.0654 -0.0227
vn 0.9976 -0.0654 -0.0227
vn 0.9760 -0.2057 -0.0715
vn 0.9160 -0.3790 -0.1317
vn 0.7583 -0.6157 -0.2141
vn 0.3400 -0.8883 -0.3088
vn -0.0000 -0.0000 -1.0000
vn -0.0000 -0.9446 -0.3284
vn -1.0000 -0.0000 -0.0000
vn 1.0000 -0.0000 -0.0000
vn -0.0000 -0.7097 0.7045
vn 0.0953 0.9676 -0.2339
vn -0.0000 0.9720 -0.2350
vn -0.0000 1.0000 0.0053
vn 0.0980 0.9952 0.0055
vn -0.0000 0.9927 0.1208
vn 0.0973 0.9882 0.1184
vn -0.0000 0.9992 -0.0388
vn 0.0979 0.9944 -0.0385
vn -0.0000 0.9927 -0.1202
vn 0.0973 0.9881 -0.1189
vn 0.0966 0.9809 -0.1689
vn -0.0000 0.9855 -0.1697
vn -0.0953 0.9676 -0.2339
vn -0.0980 0.9952 0.0055
vn -0.0973 0.9882 0.1184
vn -0.0979 0.9944 -0.0385
vn -0.0973 0.9881 -0.1189
vn -0.0966 0.9809 -0.1689
vn -0.0653 0.9974 -0.0307
vn -0.2061 0.9780 -0.0327
vn -0.3818 0.9233 0.0421
vn -0.6105 0.7522 0.2479
vn -0.7612 0.2915 0.5793
vn -0.7612 -0.2915 0.5793
vn -0.6105 -0.7522 0.2479
vn -0.3818 -0.9233 0.0421
vn -0.2061 -0.9780 -0.0327
vn -0.0653 -0.9974 -0.0307
vn -0.1361 -0.0000 -0.9907
vn -0.3710 -0.0000 -0.9286
vn -0.5688 -0.0000 -0.8225
vn -0.7406 -0.0000 -0.6719
vn -0.8866 -0.0000 -0.4625
vn -0.8883 0.3400 -0.3088
vn -0.6157 0.7583 -0.2141
vn -0.3790 0.9160 -0.1317
vn -0.2057 0.9760 -0.0715
vn -0.0654 0.9976 -0.0227
vn -0.0654 -0.9976 -0.0227
vn -0.2057 -0.9760 -0.0715
vn -0.3790 -0.9160 -0.1317
vn -0.6157 -0.7583 -0.2141
vn -0.8883 -0.3400 -0.3088
vn -0.9446 -0.0000 -0.3284
vn -0.0000 1.0000 -0.0000
vn -0.0000 -1.0000 -0.0000
vn -0.7097 -0.0000 0.7045
vn 0.9676 -0.0953 -0.2339
vn 0.9720 -0.0000 -0.2350
vn 1.0000 -0.0000 0.0053
vn 0.9952 -0.0980 0.0055
vn 0.9927 -0.0000 0.1208
vn 0.9882 -0.0973 0.1184
vn 0.9992 -0.0000 -0.0388
vn 0.9944 -0.0979 -0.0385
vn 0.9927 -0.0000 -0.1202
vn 0.9881 -0.0973 -0.1189
vn 0.9809 -0.0966 -0.1689
vn 0.9855 -0.0000 -0.1697
vn 0.9676 0.0953 -0.2339
vn 0.9952 0.0980 0.0055
vn 0.9882 0.0973 0.1184
vn 0.9944 0.0979 -0.0385
vn 0.9881 0.0973 -0.1189
vn 0.9809 0.0966 -0.1689
vn 0.9974 0.0653 -0.0307
vn 0.9780 0.2061 -0.0327
vn 0.9233 0.3818 0.0421
vn 0.7522 0.6105 0.2479
vn 0.2915 0.7612 0.5793
vn -0.2915 0.7612 0.5793
vn -0.7522 0.6105 0.2479
vn -0.9233 0.3818 0.0421
vn -0.9780 0.2061 -0.0327
vn -0.9974 0.0653 -0.0307
vn -0.0000 0.1361 -0.9907
vn -0.0000 0.3710 -0.9286
vn -0.0000 0.5688 -0.8225
vn -0.0000 0.7406 -0.6719
vn -0.0000 0.8866 -0.4625
vn 0.3400 0.8883 -0.3088
vn 0.7583 0.6157 -0.2140
vn 0.9160 0.3790 -0.1317
vn 0.9760 0.2057 -0.0715
vn 0.9976 0.0654 -0.0227
vn -0.9976 0.0654 -0.0227
vn -0.9760 0.2057 -0.0715
vn -0.9160 0.3790 -0.1317
vn -0.7583 0.6157 -0.2140
vn -0.3400 0.8883 -0.3088
vn -0.0000 0.9446 -0.3284
vn -0.0000 0.7097 0.7045
vn -0.0953 -0.9676 -0.2339
vn -0.0000 -0.9720 -0.2350
vn -0.0000 -1.0000 0.0053
vn -0.0980 -0.9952 0.0055
vn -0.0000 -0.9927 0.1208
vn -0.0973 -0.9882 0.1184
vn -0.0000 -0.9992 -0.0388
vn -0.0979 -0.9944 -0.0385
vn -0.0000 -0.9927 -0.1202
vn -0.0973 -0.9881 -0.1189
vn -0.0966 -0.9809 -0.1689
vn -0.0000 -0.9855 -0.1697
vn 0.0953 -0.9676 -0.2339
vn 0.0980 -0.9952 0.0055
vn 0.0973 -0.9882 0.1184
vn 0.0979 -0.9944 -0.0385
vn 0.0973 -0.9881 -0.1189
vn 0.0966 -0.9809 -0.1689
vn 0.0653 -0.9974 -0.0307
vn 0.2061 -0.9780 -0.0327
vn 0.3818 -0.9233 0.0421
vn 0.6105 -0.7522 0.2479
vn 0.7612 -0.2915 0.5793
vn 0.7612 0.2915 0.5793
vn 0.6105 0.7522 0.2479
vn 0.3818 0.9233 0.0421
vn 0.2061 0.9780 -0.0327
vn 0.0653 0.9974 -0.0307
vn 0.1361 -0.0000 -0.9907
vn 0.3710 -0.0000 -0.9286
vn 0.5688 -0.0000 -0.8225
vn 0.7406 -0.0000 -0.6719
vn 0.8866 -0.0000 -0.4625
vn 0.8883 -0.3400 -0.3088
vn 0.6157 -0.7583 -0.2141
vn 0.3790 -0.9160 -0.1317
vn 0.2057 -0.9760 -0.0715
vn 0.0654 -0.9976 -0.0227
vn 0.0654 0.9976 -0.0227
vn 0.2057 0.9760 -0.0715
vn 0.3790 0.9160 -0.1317
vn 0.6157 0.7583 -0.2141
vn 0.8883 0.3400 -0.3088
vn 0.9446 -0.0000 -0.3284
vn 0.7097 -0.0000 0.7045
vn -0.9676 0.0953 -0.2339
vn -0.9720 -0.0000 -0.2350
vn -1.0000 -0.0000 0.0053
vn -0.9952 0.0980 0.0055
vn -0.9927 -0.0000 0.1208
vn -0.9882 0.0973 0.1184
vn -0.9992 -0.0000 -0.0388
vn -0.9944 0.0979 -0.0385
vn -0.9927 -0.0000 -0.1202
vn -0.9881 0.0973 -0.1189
vn -0.9809 0.0966 -0.1689
vn -0.9855 -0.0000 -0.1697
vn -0.9676 -0.0953 -0.2339
vn -0.9952 -0.0980 0.0055
vn -0.9882 -0.0973 0.1184
vn -0.9944 -0.0979 -0.0385
vn -0.9881 -0.0973 -0.1189
vn -0.9809 -0.0966 -0.1689
vt 0.601908 0.799716
vt 0.703457 0.799716
vt 0.703457 0.869562
vt 0.652683 0.868980
vt 0.601908 0.869562
vt 0.714914 0.692865
vt 0.714914 0.694504
vt 0.713224 0.698167
vt 0.714914 0.695981
vt 0.714914 0.697154
vt 0.714914 0.697907
vt 0.714914 0.698167
vt 0.714914 0.774932
vt 0.714951 0.782591
vt 0.713224 0.799716
vt 0.715060 0.789500
vt 0.715230 0.794983
vt 0.715444 0.798503
vt 0.715681 0.799716
vt 0.906556 0.815354
vt 0.805007 0.815354
vt 0.805558 0.810335
vt 0.905343 0.810279
vt 0.805975 0.801538
vt 0.901823 0.799716
vt 0.804720 0.695738
vt 0.804226 0.789500
vt 0.804226 0.708383
vt 0.803490 0.782591
vt 0.803490 0.715292
vt 0.802757 0.774932
vt 0.802757 0.722951
vt 0.714914 0.722951
vt 0.714951 0.715292
vt 0.715060 0.708383
vt 0.804897 0.687492
vt 0.805007 0.682529
vt 0.714914 0.805018
vt 0.714914 0.803379
vt 0.714914 0.801902
vt 0.805007 0.827766
vt 0.906556 0.827766
vt 0.855782 0.826460
vt 0.714914 0.626648
vt 0.720223 0.631120
vt 0.746758 0.620995
vt 0.775583 0.630458
vt 0.797537 0.653350
vt 0.805007 0.670117
vt 0.720223 0.866763
vt 0.714914 0.871235
vt 0.797537 0.844533
vt 0.775583 0.867425
vt 0.746758 0.876888
vt 0.703457 0.698167
vt 0.703457 0.628321
vt 0.556660 0.808445
vt 0.551133 0.808445
vt 0.551133 0.823423
vt 0.555874 0.823423
vt 0.556117 0.818680
vt 0.551133 0.847131
vt 0.557320 0.847131
vt 0.551133 0.870838
vt 0.557258 0.870838
vt 0.551133 0.894545
vt 0.556863 0.894545
vt 0.556570 0.900689
vt 0.551133 0.900689
vt 0.952347 0.818680
vt 0.952590 0.823423
vt 0.957331 0.823423
vt 0.957331 0.808445
vt 0.951804 0.808445
vt 0.951144 0.847131
vt 0.957331 0.847131
vt 0.951206 0.870838
vt 0.957331 0.870838
vt 0.951601 0.894545
vt 0.957331 0.894545
vt 0.951895 0.900689
vt 0.957331 0.900689
s 0
usemtl Material
f 449/623/450 450/624/450 481/625/450 482/626/450 483/627/450
f 463/628/451 466/629/451 465/630/451
f 466/629/452 467/631/452 465/630/452
f 467/631/453 468/632/453 465/630/453
f 468/632/454 469/633/454 465/630/454
f 469/633/455 464/634/455 465/630/455
f 470/635/456 473/636/456 472/637/456
f 473/636/457 474/638/457 472/637/457
f 474/638/458 475/639/458 472/637/458
f 475/639/459 476/640/459 472/637/459
f 476/640/460 471/641/460 472/637/460
f 452/642/461 458/643/461 462/644/461 456/645/461
f 456/645/462 462/644/462 461/646/462 455/647/462
f 455/648/463 461/646/463 460/649/463 454/650/463
f 454/650/464 460/649/464 459/651/464 453/652/464
f 453/652/465 459/651/465 457/653/465 451/654/465
f 451/654/466 464/655/466 469/656/466 453/652/466
f 453/652/467 469/656/467 468/657/467 454/650/467
f 454/650/468 468/657/468 467/631/468 455/648/468
f 455/648/469 467/631/469 466/629/469 456/658/469
f 456/658/470 466/629/470 463/628/470 452/659/470
f 458/643/471 471/660/471 476/661/471 462/644/471
f 462/644/472 476/661/472 475/662/472 461/646/472
f 461/646/473 475/662/473 474/638/473 460/649/473
f 460/649/474 474/638/474 473/636/474 459/651/474
f 459/651/475 473/636/475 470/635/475 457/653/475
f 486/663/476 458/643/476 452/642/476 485/664/476 484/665/476
f 464/655/477 451/654/477 457/653/477 470/635/477
f 452/659/478 463/628/478 491/666/478 490/667/478 489/668/478 487/669/478 488/670/478 485/671/478
f 495/672/479 496/673/479 471/660/479 458/643/479 486/663/479 492/674/479 494/675/479 493/676/479
f 463/628/478 465/630/478 449/677/478 483/678/478 491/666/478
f 470/635/480 472/637/480 450/624/480 449/677/480 465/630/480 464/655/480
f 481/625/479 450/624/479 472/637/479 471/660/479 496/673/479
s 1
f 483/679/481 482/680/482 480/681/483 490/682/484 491/683/481
f 480/681/483 479/684/485 489/685/486 490/682/484
f 479/684/485 478/686/487 487/687/488 489/685/486
f 478/686/487 477/688/489 488/689/490 487/687/488
f 485/690/491 488/689/490 477/688/489 484/691/492
f 496/692/493 495/693/494 480/694/483 482/695/482 481/696/493
f 493/697/495 479/698/485 480/694/483 495/693/494
f 494/699/496 478/700/487 479/698/485 493/697/495
f 492/701/497 477/702/489 478/700/487 494/699/496
f 492/701/497 486/703/498 484/704/492 477/702/489
s 0
f 497/623/450 498/624/450 529/625/450 530/626/450 531/627/450
f 511/628/499 514/629/499 513/630/499
f 514/629/500 515/631/500 513/630/500
f 515/631/501 516/632/501 513/630/501
f 516/632/502 517/633/502 513/630/502
f 517/633/503 512/634/503 513/630/503
f 518/635/504 521/636/504 520/637/504
f 521/636/505 522/638/505 520/637/505
f 522/638/506 523/639/506 520/637/506
f 523/639/507 524/640/507 520/637/507
f 524/640/508 519/641/508 520/637/508
f 500/642/509 506/643/509 510/644/509 504/645/509
f 504/645/510 510/644/510 509/646/510 503/647/510
f 503/648/511 509/646/511 508/649/511 502/650/511
f 502/650/512 508/649/512 507/651/512 501/652/512
f 501/652/513 507/651/513 505/653/513 499/654/513
f 499/654/514 512/655/514 517/656/514 501/652/514
f 501/652/515 517/656/515 516/657/515 502/650/515
f 502/650/516 516/657/516 515/631/516 503/648/516
f 503/648/517 515/631/517 514/629/517 504/658/517
f 504/658/518 514/629/518 511/628/518 500/659/518
f 506/643/519 519/660/519 524/661/519 510/644/519
f 510/644/520 524/661/520 523/662/520 509/646/520
f 509/646/521 523/662/521 522/638/521 508/649/521
f 508/649/522 522/638/522 521/636/522 507/651/522
f 507/651/523 521/636/523 518/635/523 505/653/523
f 534/663/476 506/643/476 500/642/476 533/664/476 532/665/476
f 512/655/524 499/654/524 505/653/524 518/635/524
f 500/659/525 511/628/525 539/666/525 538/667/525 537/668/525 535/669/525 536/670/525 533/671/525
f 543/672/526 544/673/526 519/660/526 506/643/526 534/663/526 540/674/526 542/675/526 541/676/526
f 511/628/525 513/630/525 497/677/525 531/678/525 539/666/525
f 518/635/527 520/637/527 498/624/527 497/677/527 513/630/527 512/655/527
f 529/625/526 498/624/526 520/637/526 519/660/526 544/673/526
s 1
f 531/679/528 530/680/529 528/681/530 538/682/531 539/683/528
f 528/681/530 527/684/532 537/685/533 538/682/531
f 527/684/532 526/686/534 535/687/535 537/685/533
f 526/686/534 525/688/536 536/689/537 535/687/535
f 533/690/538 536/689/537 525/688/536 532/691/539
f 544/692/540 543/693/541 528/694/530 530/695/529 529/696/540
f 541/697/542 527/698/532 528/694/530 543/693/541
f 542/699/543 526/700/534 527/698/532 541/697/542
f 540/701/544 525/702/536 526/700/534 542/699/543
f 540/701/544 534/703/545 532/704/539 525/702/536
s 0
f 545/623/450 546/624/450 577/625/450 578/626/450 579/627/450
f 559/628/546 562/629/546 561/630/546
f 562/629/547 563/631/547 561/630/547
f 563/631/548 564/632/548 561/630/548
f 564/632/549 565/633/549 561/630/549
f 565/633/550 560/634/550 561/630/550
f 566/635/551 569/636/551 568/637/551
f 569/636/552 570/638/552 568/637/552
f 570/638/553 571/639/553 568/637/553
f 571/639/554 572/640/554 568/637/554
f 572/640/555 567/641/555 568/637/555
f 548/642/556 554/643/556 558/644/556 552/645/556
f 552/645/557 558/644/557 557/646/557 551/647/557
f 551/648/558 557/646/558 556/649/558 550/650/558
f 550/650/559 556/649/559 555/651/559 549/652/559
f 549/652/560 555/651/560 553/653/560 547/654/560
f 547/654/561 560/655/561 565/656/561 549/652/561
f 549/652/562 565/656/562 564/657/562 550/650/562
f 550/650/563 564/657/563 563/631/563 551/648/563
f 551/648/564 563/631/564 562/629/564 552/658/564
f 552/658/565 562/629/565 559/628/565 548/659/565
f 554/643/566 567/660/566 572/661/566 558/644/566
f 558/644/567 572/661/567 571/662/567 557/646/567
f 557/646/568 571/662/568 570/638/568 556/649/568
f 556/649/569 570/638/569 569/636/569 555/651/569
f 555/651/570 569/636/570 566/635/570 553/653/570
f 582/663/476 554/643/476 548/642/476 581/664/476 580/665/476
f 560/655/571 547/654/571 553/653/571 566/635/571
f 548/659/479 559/628/479 587/666/479 586/667/479 585/668/479 583/669/479 584/670/479 581/671/479
f 591/672/478 592/673/478 567/660/478 554/643/478 582/663/478 588/674/478 590/675/478 589/676/478
f 559/628/479 561/630/479 545/677/479 579/678/479 587/666/479
f 566/635/572 568/637/572 546/624/572 545/677/572 561/630/572 560/655/572
f 577/625/478 546/624/478 568/637/478 567/660/478 592/673/478
s 1
f 579/679/573 578/680/574 576/681/575 586/682/576 587/683/573
f 576/681/575 575/684/577 585/685/578 586/682/576
f 575/684/577 574/686/579 583/687/580 585/685/578
f 574/686/579 573/688/581 584/689/582 583/687/580
f 581/690/583 584/689/582 573/688/581 580/691/584
f 592/692/585 591/693/586 576/694/575 578/695/574 577/696/585
f 589/697/587 575/698/577 576/694/575 591/693/586
f 590/699/588 574/700/579 575/698/577 589/697/587
f 588/701/589 573/702/581 574/700/579 590/699/588
f 588/701/589 582/703/590 580/704/584 573/702/581
s 0
f 593/623/450 594/624/450 625/625/450 626/626/450 627/627/450
f 607/628/591 610/629/591 609/630/591
f 610/629/592 611/631/592 609/630/592
f 611/631/593 612/632/593 609/630/593
f 612/632/594 613/633/594 609/630/594
f 613/633/595 608/634/595 609/630/595
f 614/635/596 617/636/596 616/637/596
f 617/636/597 618/638/597 616/637/597
f 618/638/598 619/639/598 616/637/598
f 619/639/599 620/640/599 616/637/599
f 620/640/600 615/641/600 616/637/600
f 596/642/601 602/643/601 606/644/601 600/645/601
f 600/645/602 606/644/602 605/646/602 599/647/602
f 599/648/603 605/646/603 604/649/603 598/650/603
f 598/650/604 604/649/604 603/651/604 597/652/604
f 597/652/605 603/651/605 601/653/605 595/654/605
f 595/654/606 608/655/606 613/656/606 597/652/606
f 597/652/607 613/656/607 612/657/607 598/650/607
f 598/650/608 612/657/608 611/631/608 599/648/608
f 599/648/609 611/631/609 610/629/609 600/658/609
f 600/658/610 610/629/610 607/628/610 596/659/610
f 602/643/611 615/660/611 620/661/611 606/644/611
f 606/644/612 620/661/612 619/662/612 605/646/612
f 605/646/613 619/662/613 618/638/613 604/649/613
f 604/649/614 618/638/614 617/636/614 603/651/614
f 603/651/615 617/636/615 614/635/615 601/653/615
f 630/663/476 602/643/476 596/642/476 629/664/476 628/665/476
f 608/655/616 595/654/616 601/653/616 614/635/616
f 596/659/526 607/628/526 635/666/526 634/667/526 633/668/526 631/669/526 632/670/526 629/671/526
f 639/672/525 640/673/525 615/660/525 602/643/525 630/663/525 636/674/525 638/675/525 637/676/525
f 607/628/526 609/630/526 593/677/526 627/678/526 635/666/526
f 614/635/617 616/637/617 594/624/617 593/677/617 609/630/617 608/655/617
f 625/625/525 594/624/525 616/637/525 615/660/525 640/673/525
s 1
f 627/679/618 626/680/619 624/681/620 634/682/621 635/683/618
f 624/681/620 623/684/622 633/685/623 634/682/621
f 623/684/622 622/686/624 631/687/625 633/685/623
f 622/686/624 621/688/626 632/689/627 631/687/625
f 629/690/628 632/689/627 621/688/626 628/691/629
f 640/692/630 639/693/631 624/694/620 626/695/619 625/696/630
f 637/697/632 623/698/622 624/694/620 639/693/631
f 638/699/633 622/700/624 623/698/622 637/697/632
f 636/701/634 621/702/626 622/700/624 638/699/633
f 636/701/634 630/703/635 628/704/629 621/702/626
